<svg width="20" height="20" viewBox="0 0 20 20" fill="none" xmlns="http://www.w3.org/2000/svg">
<path d="M1.35288 13.0496L0.622697 13.2209L1.35288 13.0496ZM1.35288 6.95043L0.622697 6.77915L1.35288 6.95043ZM18.6471 6.95044L17.9169 7.12171L18.6471 6.95044ZM18.6471 13.0496L17.9169 12.8783L18.6471 13.0496ZM13.0496 18.6471L12.8783 17.9169L13.0496 18.6471ZM6.95044 18.6471L7.12171 17.9169L6.95044 18.6471ZM6.95043 1.35288L7.12171 2.08306L6.95043 1.35288ZM13.0496 1.35288L12.8783 2.08306L13.0496 1.35288ZM2.08306 12.8783C1.63898 10.9851 1.63898 9.01488 2.08306 7.12171L0.622697 6.77915C0.125768 8.89763 0.125768 11.1024 0.622697 13.2209L2.08306 12.8783ZM17.9169 7.12171C18.361 9.01488 18.361 10.9851 17.9169 12.8783L19.3773 13.2208C19.8742 11.1024 19.8742 8.89764 19.3773 6.77916L17.9169 7.12171ZM12.8783 17.9169C10.9851 18.361 9.01488 18.361 7.12171 17.9169L6.77916 19.3773C8.89764 19.8742 11.1024 19.8742 13.2208 19.3773L12.8783 17.9169ZM7.12171 2.08306C9.01488 1.63898 10.9851 1.63898 12.8783 2.08306L13.2208 0.622696C11.1024 0.125768 8.89763 0.125768 6.77916 0.622696L7.12171 2.08306ZM7.12171 17.9169C4.62161 17.3305 2.6695 15.3784 2.08306 12.8783L0.622697 13.2209C1.33924 16.2756 3.72441 18.6608 6.77916 19.3773L7.12171 17.9169ZM13.2208 19.3773C16.2756 18.6608 18.6608 16.2756 19.3773 13.2208L17.9169 12.8783C17.3305 15.3784 15.3784 17.3305 12.8783 17.9169L13.2208 19.3773ZM12.8783 2.08306C15.3784 2.6695 17.3305 4.62161 17.9169 7.12171L19.3773 6.77916C18.6608 3.72441 16.2756 1.33924 13.2208 0.622696L12.8783 2.08306ZM6.77916 0.622696C3.72441 1.33924 1.33924 3.72441 0.622697 6.77915L2.08306 7.12171C2.6695 4.6216 4.62161 2.6695 7.12171 2.08306L6.77916 0.622696Z" fill="#5981F0"/>
<path d="M7.78033 9.21967C7.48744 8.92678 7.01256 8.92678 6.71967 9.21967C6.42678 9.51256 6.42678 9.98744 6.71967 10.2803L7.78033 9.21967ZM9.25 11.75L8.71967 12.2803C8.86349 12.4242 9.05956 12.5034 9.26293 12.4999C9.46629 12.4964 9.65951 12.4104 9.79829 12.2617L9.25 11.75ZM13.2983 8.51174C13.5809 8.20893 13.5646 7.73433 13.2617 7.45171C12.9589 7.16908 12.4843 7.18545 12.2017 7.48826L13.2983 8.51174ZM6.71967 10.2803L8.71967 12.2803L9.78033 11.2197L7.78033 9.21967L6.71967 10.2803ZM9.79829 12.2617L13.2983 8.51174L12.2017 7.48826L8.70171 11.2383L9.79829 12.2617Z" fill="#5981F0"/>
</svg>
