<svg width="20" height="20" fill="none" xmlns="http://www.w3.org/2000/svg"><path d="m1.353 13.05-.73.17.73-.17Zm0-6.1-.73-.17.73.17Zm17.294 0-.73.172.73-.172Zm0 6.1-.73-.172.73.172Zm-5.597 5.597-.172-.73.172.73Zm-6.1 0 .172-.73-.172.73Zm0-17.294.172.73-.172-.73Zm6.1 0-.172.73.172-.73ZM2.083 12.878a12.604 12.604 0 0 1 0-5.756l-1.46-.343a14.104 14.104 0 0 0 0 6.442l1.46-.343Zm15.834-5.756a12.603 12.603 0 0 1 0 5.756l1.46.343a14.104 14.104 0 0 0 0-6.442l-1.46.343Zm-5.039 10.795a12.603 12.603 0 0 1-5.756 0l-.343 1.46c2.119.497 4.323.497 6.442 0l-.343-1.46ZM7.122 2.083a12.604 12.604 0 0 1 5.756 0l.343-1.46a14.103 14.103 0 0 0-6.442 0l.343 1.46Zm0 15.834a6.761 6.761 0 0 1-5.039-5.039l-1.46.343a8.261 8.261 0 0 0 6.156 6.156l.343-1.46Zm6.099 1.46a8.261 8.261 0 0 0 6.156-6.156l-1.46-.343a6.761 6.761 0 0 1-5.039 5.039l.343 1.46Zm-.343-17.294a6.761 6.761 0 0 1 5.039 5.039l1.46-.343A8.261 8.261 0 0 0 13.221.623l-.343 1.46ZM6.78.623A8.261 8.261 0 0 0 .623 6.779l1.46.343a6.761 6.761 0 0 1 5.039-5.039L6.779.623Zm1 8.597a.75.75 0 0 0-1.06 1.06l1.06-1.06Zm1.47 2.53-.53.53a.75.75 0 0 0 1.078-.018l-.548-.512Zm4.048-3.238a.75.75 0 1 0-1.096-1.024l1.096 1.024ZM6.72 10.28l2 2 1.06-1.06-2-2-1.06 1.06Zm3.078 1.982 3.5-3.75-1.096-1.024-3.5 3.75 1.096 1.024Z" fill="#5981F0"/></svg>