<svg width="252" height="236" fill="none" xmlns="http://www.w3.org/2000/svg"><path d="M131.453 230.511c51.296 0 92.879-2.131 92.879-4.76s-41.583-4.76-92.879-4.76c-51.297 0-92.88 2.131-92.88 4.76s41.583 4.76 92.88 4.76Z" fill="#F2FBFF"/><path d="M172.132 224.777s-1.786-3.029 2.055-4.49c3.841-1.46 12.55-2.38 11.685-5.355-.866-2.975-3.841-8.33 3.624-13.415 7.411-5.031 5.95-7.195 6.978-6.708 1.028.487 3.516 3.462 3.083 6.275-.432 2.813-2.488 3.516-1.514 4.436.973.865 4.273-2.326 4.273-5.302 0-2.975.162-5.139 2.326-3.894 2.11 1.244 1.839 3.029 3.354 1.677 1.515-1.353 2.488-4.057 1.839-8.06-.595-4.003 1.353-6.979 4.166-7.087 2.812-.108 8.655 5.139 9.141 13.091.433 7.952-4.489 14.443-3.786 16.445.703 2.055 3.786 1.082 5.409-1.84 1.569-2.921 5.464 1.677 4.436 5.68-1.082 4.003-2.056 8.385-4.436 9.196-2.38.812-44.627.163-47.819.163-3.246 0-4.219.054-4.814-.812Z" fill="#FF8D76"/><path d="M182.139 223.425c2.218-.054 8.871 0 8.06-3.733-.812-3.732-2.218-5.301.108-8.492 2.326-3.192 4.869-1.245 4.977.378.108 1.569-.541 4.761 2.218 4.328 2.758-.433 2.812-7.898 5.139-8.493 2.326-.595 3.029 1.677 3.353 3.895.379 2.218 3.084-.162 4.166-2.813 1.082-2.651.973-6.275 3.462-7.357 2.488-1.082 3.732 5.139 2.65 10.819-1.082 5.68-1.947 8.493-.595 9.034 1.353.541 4.003-.812 5.247 1.244 1.245 2.055-.595 3.462-5.679 3.462h-34.891c-4.166-.054-3.3-2.164 1.785-2.272Zm-147.245-86.01c-1.622 2.867-6.004 1.406-8.06-1.839-2.055-3.3-5.139-1.353-4.435 5.139.703 6.437 3.3 10.71 7.951 13.794 4.652 3.083 9.9 4.327 8.655 6.437-1.244 2.11-3.191 6.924 3.787 9.358 6.978 2.489 17.094 1.353 22.287-4.49 5.247-5.842 5.247-18.716 2.813-25.64-2.38-6.924-7.195-11.306-8.763-14.497-1.57-3.192-4.49-.974-4.003 2.001.54 2.975 1.514 4.706-.595 4.76-2.11.054-3.517-7.194-9.846-8.547-6.329-1.406-7.356 2.381-11.36.217-4.002-2.218-5.463-2.002-5.733 1.46-.27 3.516 2.38 7.357 4.652 7.952 3.408.866 3.732 1.948 2.65 3.895Z" fill="#FEC272"/><path d="M44.2 140.769c.594 3.083-1.948 6.437-6.384 4.49-4.436-1.948-6.004-.379-3.733 3.732 2.273 4.111 7.357 7.898 10.116 9.304 2.759 1.407.866 3.462 1.244 5.572.379 2.11 6.546 5.301 12.767-1.515 6.22-6.815 6.274-15.47 4.49-21.8-1.786-6.274-4.166-5.301-4.166-3.191 0 2.11.27 6.275-1.352 5.842-1.569-.433-3.787-3.516-5.842-7.086-3.517-6.113-12.118-11.09-13.254-6.383-.81 3.299 5.248 6.329 6.113 11.035Z" fill="#FF8D76"/><path d="M169.643 120.592c-7.789-6.329-14.876-17.689-16.444-38.083-1.136-14.767 3.786-21.313 8.871-23.747 5.031-2.38 5.031-4.76 7.303-4.111 2.272.649 1.731 5.842-.379 8.384-2.109 2.543-2.38 6.492.812 6.762 3.191.27 3.57-5.463 4.111-10.764.541-5.302 1.839-7.411 8.114-10.333 6.275-2.92 9.575-5.03 10.873-9.304 1.352-4.273 2.65-4.003 5.031-2.813 2.38 1.19 3.191 6.762 1.19 8.872-2.002 2.11-3.571 3.732-3.3 5.572.27 1.839 1.19-1.082 6.654-3.733 5.463-2.65 7.681-10.602 8.384-14.714.703-4.11 2.11-5.193 5.95-3.3 3.841 1.84 8.764 9.143 7.411 19.096-1.352 9.953-8.114 16.715-9.142 22.07-1.081 5.302 2.272 6.492 5.734 4.49 3.462-2.001 1.569-7.952 3.462-10.765 1.84-2.812 7.574 3.192 9.305 13.253 1.731 10.062 4.381 26.074-10.603 41.058-15.471 15.363-38.136 14.497-53.337 2.11Z" fill="#FEC272"/><path d="M175.432 73.367c3.787-6.166 7.681-5.95 7.844-3.732.108 2.272-3.03 5.463-1.461 7.032 1.569 1.569 3.733-1.19 4.382-5.193.649-4.003 4.49-6.22 8.492-8.114 4.003-1.84 5.734-5.842 7.682-5.95 1.947-.109 2.65 4.11 1.352 6.653-1.352 2.543-6.112 3.84-6.112 7.411 0 3.57 3.516 3.787 5.03.812 1.515-2.976 1.136-4.599 4.328-4.869 3.191-.27 2.921 7.357.811 10.17-2.109 2.813-5.734 5.03-4.057 7.79 1.677 2.758 4.76 0 6.437-1.84 1.677-1.839 5.031.162 5.572 3.733.541 3.516-6.383 9.574-5.95 12.658.433 3.083 3.191 2.326 4.76.162 1.569-2.11 3.624.595 3.083 4.165-.541 3.57-10.169 15.417-27.371 10.873-24.992-6.545-21.584-30.671-14.822-41.76Z" fill="#FF8D76"/><path d="m85.526 66.01 56.042-48.846a1.292 1.292 0 0 1 1.839.108c.487.54.433 1.406-.108 1.893L88.177 69.581l-2.65-3.57Zm-5.246 9.954L49.554 8.238c-.325-.649 0-1.46.65-1.73a1.318 1.318 0 0 1 1.784.648l32.457 67.348-4.165 1.46Z" fill="#A9CFF2"/><path d="M80.604 81.32c5.587 0 10.116-4.53 10.116-10.116 0-5.587-4.529-10.116-10.116-10.116-5.586 0-10.115 4.529-10.115 10.116 0 5.586 4.529 10.115 10.115 10.115Z" fill="#24272E"/><path d="M80.172 67.904c2.689 0 4.868-1.356 4.868-3.03 0-1.672-2.18-3.029-4.868-3.029-2.69 0-4.869 1.357-4.869 3.03 0 1.673 2.18 3.029 4.869 3.029Z" fill="#3A404B"/><path d="M160.231 195.837c-.162 4.598-5.518 4.76-8.168-.541-1.244-2.543-3.3-6.87-5.085-10.657a902.27 902.27 0 0 1-3.57-7.735l15.417 1.569s.324 2.704.703 6.112c.433 3.895.811 8.763.703 11.252Z" fill="#24272E"/><path d="M159.528 184.585c-.757.163-1.623.325-2.543.487-3.191.541-6.869.162-9.953-.433a902.27 902.27 0 0 1-3.57-7.735l15.417 1.569c-.054 0 .324 2.704.649 6.112Z" fill="#3A404B"/><path d="M55.667 178.202c-1.623 4.328 3.191 6.546 7.681 2.705 2.164-1.839 5.734-5.031 8.871-7.844 3.408-3.083 6.33-5.734 6.33-5.734l-14.822-4.598s-1.353 2.38-3.03 5.356c-1.839 3.516-4.165 7.789-5.03 10.115Z" fill="#24272E"/><path d="M60.752 168.141c.649.486 1.352.973 2.163 1.46 2.705 1.731 6.221 2.813 9.358 3.516 3.409-3.083 6.33-5.734 6.33-5.734l-14.822-4.598s-1.353 2.38-3.03 5.356Z" fill="#3A404B"/><path d="M199.558 119.888c-2.056 16.175-3.895 33.322-7.411 45.169a38.397 38.397 0 0 1-1.461 4.219c-4.49 11.685-12.658 9.305-23.206 10.278-10.549.974-13.74.866-13.74.866l2.704-16.445 12.875-77.68 25.262 2.219s1.352.974 2.488 2.813c1.19 1.893 4.815 10.278 2.489 28.561Z" fill="#358B2F"/><path d="M192.147 165.057a38.397 38.397 0 0 1-1.461 4.219c-4.49 11.685-12.658 9.305-23.206 10.278-10.549.974-13.74.866-13.74.866l2.704-16.445 35.703 1.082Z" fill="#166F10"/><path d="M60.157 74.774s6.6-3.462 14.064-3.733c7.465-.27 66.536 5.626 85.848 7.736 19.311 2.11 27.642 4.76 31.537 6.816 3.895 2.055 5.463 5.734 5.463 5.734l-30.996-2.813-105.916-13.74Z" fill="#2FA726"/><path d="m48.364 146.449 3.95-60.91c.432-7.033 6.707-12.28 13.685-11.469l100.399 11.36c6.275.703 10.765 6.33 10.17 12.55l-6.6 66.482c-1.028 10.224-10.494 17.418-20.61 15.741l-85.847-14.551c-9.197-1.569-15.742-9.899-15.147-19.203Z" fill="#50B848"/><path d="m142.38 166.518 7.248-70.269c.325-2.975 2.975-5.139 5.951-4.814l12.604 1.406c2.975.325 5.084 3.03 4.76 5.95l-8.114 70.323c-.325 2.975-3.084 5.085-6.059 4.706l-11.684-1.46c-2.921-.325-5.031-2.921-4.706-5.842Z" fill="#FEC272"/><path d="M169.752 106.743c0 2.272-.811 4.328-2.11 5.951-.919 1.082-2.001 2.001-3.299 2.596-1.19.595-2.543.866-4.003.866-5.193 0-9.413-4.219-9.413-9.413 0-2.163.758-4.165 1.948-5.734a9.26 9.26 0 0 1 3.245-2.704c1.244-.65 2.705-.974 4.22-.974 5.139 0 9.412 4.219 9.412 9.412Z" fill="#F9A95A"/><path d="M169.265 105.175a8.532 8.532 0 0 1-1.948 5.463 8.131 8.131 0 0 1-3.029 2.38c-1.136.541-2.326.812-3.678.812a8.645 8.645 0 0 1-8.655-8.655c0-2.002.649-3.787 1.785-5.247.811-1.028 1.785-1.894 2.975-2.435a8.548 8.548 0 0 1 3.841-.92 8.578 8.578 0 0 1 8.709 8.602Z" fill="#99ADF9"/><path d="M167.372 110.638a8.137 8.137 0 0 1-3.03 2.381l-10.494-13.091c.812-1.028 1.785-1.894 2.975-2.434l10.549 13.144Z" fill="#C5DFFF"/><path d="M161.258 138.01c-2.055.811-4.165.865-6.112.27a8.81 8.81 0 0 1-3.57-2.055c-.974-.866-1.731-2.002-2.272-3.246-1.894-4.706.324-10.062 5.03-11.955 1.948-.811 4.003-.865 5.897-.324a9.84 9.84 0 0 1 3.624 1.947c1.028.92 1.893 2.056 2.434 3.408 1.948 4.706-.324 10.061-5.031 11.955Z" fill="#F9A95A"/><path d="M161.259 135.792a8.889 8.889 0 0 1-5.788.27 8.97 8.97 0 0 1-3.354-1.893c-.92-.811-1.623-1.839-2.11-3.083-1.785-4.436.325-9.467 4.706-11.252 1.84-.757 3.787-.811 5.572-.324 1.244.324 2.38.973 3.408 1.839a8.905 8.905 0 0 1 2.326 3.245c1.785 4.382-.324 9.413-4.76 11.198Z" fill="#99ADF9"/><path d="m163.693 121.295-8.222 14.767a8.955 8.955 0 0 1-3.354-1.893l8.168-14.659a7.943 7.943 0 0 1 3.408 1.785Z" fill="#C5DFFF"/><path d="m161.584 148.125-11.36-1.731a1.397 1.397 0 0 1-1.19-1.568c.108-.758.758-1.299 1.515-1.19l11.36 1.731a1.397 1.397 0 0 1 1.19 1.568c-.108.758-.812 1.299-1.515 1.19Zm-.758 6.275-11.359-1.731a1.397 1.397 0 0 1-1.191-1.568c.109-.758.758-1.299 1.515-1.19l11.36 1.731a1.397 1.397 0 0 1 1.19 1.568c-.054.812-.757 1.299-1.515 1.19Zm-.702 6.329-11.36-1.731a1.397 1.397 0 0 1-1.19-1.568c.108-.758.757-1.299 1.514-1.191l11.36 1.732a1.396 1.396 0 0 1 1.19 1.568c-.054.758-.757 1.299-1.514 1.19Zm-.704 6.275-11.36-1.731a1.397 1.397 0 0 1-1.19-1.568c.108-.758.758-1.299 1.515-1.19l11.36 1.731a1.397 1.397 0 0 1 1.19 1.568c-.054.758-.758 1.299-1.515 1.19Z" fill="#0D2560"/><path d="m145.031 98.305-.325 3.408-5.734 60.477c-.216 2.056-1.082 3.895-2.434 5.247-1.894 1.948-4.652 2.975-7.573 2.488l-64.643-10.223c-6.762-1.082-11.63-7.141-11.198-14.011l3.462-54.202.109-1.785.216-2.975c.27-4.112 3.949-7.195 8.06-6.708l72.486 8.709c4.652.65 8.006 4.868 7.574 9.575Z" fill="#F8FBFF"/><path d="m145.03 98.305-.324 3.408-88.012-11.955.217-2.975c.27-4.112 3.949-7.195 8.06-6.708l72.486 8.71c4.652.594 8.006 4.814 7.573 9.52Z" fill="#A9CFF2"/><path d="M65.512 86.242a2.07 2.07 0 0 1-2.326 1.73c-1.136-.162-2.002-1.135-1.84-2.217a2.07 2.07 0 0 1 2.327-1.731c1.136.162 1.947 1.136 1.839 2.218Zm8.547 1.028A2.07 2.07 0 0 1 71.733 89c-1.136-.162-2.002-1.135-1.84-2.217a2.07 2.07 0 0 1 2.327-1.731c1.136.162 1.947 1.136 1.839 2.217Zm8.493 1.027a2.07 2.07 0 0 1-2.327 1.731c-1.135-.162-2.001-1.136-1.839-2.218a2.07 2.07 0 0 1 2.326-1.73c1.19.108 2.002 1.135 1.84 2.217Z" fill="#fff"/><path d="M136.538 167.437c-1.894 1.948-4.652 2.975-7.573 2.489l-64.643-10.224c-6.762-1.082-11.63-7.141-11.198-14.011l3.462-54.202c1.136 18.771-1.73 39.705 8.71 51.606 15.308 17.472 29.21 17.364 71.242 24.342Z" fill="#A9CFF2"/><path d="m84.391 111.991-2.704-.433c-.703-.108-1.299.325-1.353 1.028l-.811 7.411-3.408-.379c-.595-.108-.974-.703-.757-1.244l2.434-5.95c.325-.758-.216-1.623-1.028-1.732l-2.218-.378c-.54-.108-1.082.216-1.298.703l-3.84 9.521c-.433 1.082.27 2.326 1.46 2.542l8.168 1.407-1.46 13.199c-.054.703.432 1.352 1.136 1.46l2.542.379c.65.108 1.244-.325 1.352-1.028l2.921-24.992c.055-.703-.432-1.406-1.136-1.514Zm38.569 6.437-2.758-.487c-.704-.108-1.353.379-1.407 1.028l-.865 7.681-3.571-.378c-.595-.108-.973-.758-.757-1.299l2.489-6.166c.324-.758-.217-1.677-1.082-1.839l-2.272-.379a1.234 1.234 0 0 0-1.353.703l-4.003 9.845c-.432 1.136.325 2.434 1.515 2.651l8.439 1.406-1.515 13.686c-.054.703.433 1.407 1.19 1.515l2.651.378a1.23 1.23 0 0 0 1.406-1.027l3.029-25.912c.109-.649-.432-1.298-1.136-1.406Zm-25.37-4.706c-5.355-.487-8.493 2.542-9.79 11.468-1.624 11.089 1.297 15.579 6.707 16.823 7.357 1.731 8.655-4.598 10.116-13.956 1.46-9.359-1.677-13.848-7.033-14.335Zm2.651 14.118c-.703 6.546-2.705 10.278-5.14 9.683-2.596-.649-3.57-3.678-2.812-11.414.595-6.221 2.11-8.33 4.652-8.114 2.543.271 4.003 3.3 3.3 9.845Z" fill="#50B848"/><path d="M168.183 43.615c-2.596-.054-3.732-6.275-1.298-7.843 2.434-1.57 4.165 1.623 4.219 3.949.054 2.326-.595 4.003-2.921 3.894Z" fill="#FF8D76"/><path d="M198.206 25.602c-2.38-.054-3.408-5.68-1.136-7.086 2.218-1.407 3.732 1.46 3.786 3.57.055 2.11-.541 3.57-2.65 3.516Z" fill="#FEC272"/><path d="M221.953 14.134c-2.435-.054-3.516-5.842-1.19-7.303 2.326-1.46 3.84 1.515 3.949 3.679.108 2.164-.596 3.732-2.759 3.624Z" fill="#FF8D76"/><path d="M241.697 58.762c-2.056-.541-1.785-5.788.487-6.546 2.272-.757 3.029 2.056 2.65 3.95-.378 1.893-1.244 3.083-3.137 2.596Zm-207.29 54.851c-2.542-.378-3.029-6.599-.378-7.843 2.65-1.245 3.895 2.055 3.732 4.327-.216 2.326-1.028 3.787-3.354 3.516Z" fill="#FEC272"/><path d="M27.105 93.599c-2.001-.27-2.326-5.14-.324-6.113 2.001-.974 3.03 1.569 2.867 3.354-.108 1.839-.758 3.029-2.543 2.759Z" fill="#FF8D76"/><path d="M12.446 125.731c-3.246-.433-3.841-8.439-.487-10.008 3.3-1.568 4.977 2.597 4.76 5.572-.27 2.921-1.298 4.814-4.273 4.436ZM46.471 72.07 20.722 51.566 16.07 60.06l30.401 12.01Zm1.245-5.789L22.724 41.885l9.358-6.059 15.634 30.455Zm-3.679-29.59L52.8 63.956l-.866-28.075-7.897.811Z" fill="#FEC272"/></svg>