<svg width="208" height="60" fill="none" xmlns="http://www.w3.org/2000/svg"><path d="M199.725 60H7.682C3.459 60 0 56.623 0 52.5v-45C0 3.377 3.459 0 7.682 0h192.043c4.223 0 7.682 3.377 7.682 7.5v45c0 4.123-3.459 7.5-7.682 7.5Z" fill="#212E38"/><path d="M72.85 15.366c0 1.252-.384 2.255-1.141 3.003-.87.887-2.003 1.334-3.392 1.334-1.327 0-2.46-.454-3.39-1.349-.93-.907-1.395-2.02-1.395-3.354 0-1.333.465-2.447 1.396-3.347.93-.902 2.062-1.356 3.39-1.356.66 0 1.29.134 1.891.381.6.25 1.087.587 1.44 1.003l-.802.792c-.617-.711-1.456-1.062-2.53-1.062-.967 0-1.807.33-2.52.996-.704.667-1.057 1.532-1.057 2.593s.353 1.933 1.058 2.6c.712.659 1.552.996 2.52.996 1.027 0 1.891-.337 2.573-1.003.45-.44.705-1.048.772-1.824h-3.346v-1.084h4.464c.053.234.069.461.069.68Zm7.08-3.758h-4.192v2.85h3.78v1.084h-3.78v2.85h4.192v1.104h-5.379v-8.992h5.38v1.104Zm4.997 7.888H83.74v-7.888h-2.57v-1.104h6.33v1.104h-2.574v7.888Zm7.156 0v-8.992h1.185v8.992h-1.185Zm6.437 0h-1.177v-7.888h-2.581v-1.104h6.339v1.104H98.52v7.888Zm14.569-1.156c-.909.909-2.034 1.363-3.377 1.363-1.35 0-2.475-.454-3.383-1.364-.907-.907-1.358-2.02-1.358-3.339 0-1.318.451-2.432 1.358-3.34.908-.909 2.033-1.363 3.383-1.363 1.335 0 2.461.454 3.369 1.371.914.915 1.365 2.021 1.365 3.332 0 1.318-.451 2.432-1.357 3.34Zm-5.883-.754c.684.673 1.516 1.01 2.506 1.01.984 0 1.823-.337 2.499-1.01.682-.673 1.027-1.538 1.027-2.586 0-1.048-.345-1.912-1.027-2.586-.676-.673-1.515-1.01-2.499-1.01-.99 0-1.822.337-2.506 1.01-.681.674-1.027 1.538-1.027 2.586 0 1.048.346 1.913 1.027 2.586Zm8.905 1.91v-8.992h1.441l4.478 6.993h.052l-.052-1.728v-5.265h1.185v8.992h-1.237l-4.69-7.338h-.051l.051 1.736v5.602h-1.177Z" fill="#fff" stroke="#fff" stroke-width=".16" stroke-miterlimit="10"/><path d="M104.679 32.629c-3.609 0-6.556 2.681-6.556 6.38 0 3.67 2.947 6.38 6.556 6.38 3.616 0 6.564-2.71 6.564-6.38 0-3.699-2.948-6.38-6.564-6.38Zm0 10.247c-1.98 0-3.684-1.596-3.684-3.867 0-2.3 1.704-3.868 3.684-3.868 1.98 0 3.691 1.568 3.691 3.868 0 2.271-1.711 3.867-3.691 3.867ZM90.374 32.629c-3.617 0-6.557 2.681-6.557 6.38 0 3.67 2.94 6.38 6.557 6.38 3.614 0 6.556-2.71 6.556-6.38 0-3.699-2.942-6.38-6.556-6.38Zm0 10.247c-1.982 0-3.691-1.596-3.691-3.867 0-2.3 1.709-3.868 3.69-3.868 1.98 0 3.684 1.568 3.684 3.868 0 2.271-1.704 3.867-3.683 3.867ZM73.35 34.584v2.712h6.631c-.194 1.515-.712 2.628-1.507 3.405-.968.937-2.476 1.978-5.124 1.978-4.081 0-7.277-3.216-7.277-7.2 0-3.985 3.196-7.2 7.277-7.2 2.206 0 3.812.842 4.997 1.933l1.957-1.91c-1.658-1.546-3.862-2.733-6.954-2.733-5.596 0-10.3 4.446-10.3 9.91s4.704 9.91 10.3 9.91c3.025 0 5.296-.968 7.082-2.783 1.83-1.787 2.401-4.3 2.401-6.328 0-.63-.054-1.21-.15-1.694H73.35Zm69.608 2.102c-.54-1.427-2.205-4.057-5.596-4.057-3.361 0-6.159 2.585-6.159 6.38 0 3.574 2.769 6.38 6.481 6.38 3.002 0 4.734-1.788 5.447-2.828l-2.228-1.45c-.743 1.062-1.755 1.765-3.219 1.765-1.453 0-2.496-.651-3.165-1.933l8.74-3.531-.301-.726Zm-8.911 2.125a3.538 3.538 0 0 1 3.413-3.72c1.14 0 2.108.556 2.431 1.353l-5.844 2.367ZM126.944 45h2.873V26.25h-2.873V45Zm-4.705-10.95h-.096c-.645-.746-1.876-1.421-3.435-1.421-3.273 0-6.265 2.805-6.265 6.401 0 3.576 2.992 6.358 6.265 6.358 1.559 0 2.79-.68 3.435-1.45h.096v.916c0 2.44-1.334 3.75-3.487 3.75-1.755 0-2.844-1.238-3.294-2.278l-2.498 1.018c.72 1.691 2.627 3.772 5.792 3.772 3.368 0 6.21-1.935 6.21-6.643V33.017h-2.723v1.033Zm-3.286 8.826c-1.98 0-3.637-1.618-3.637-3.846 0-2.248 1.657-3.889 3.637-3.889 1.952 0 3.49 1.64 3.49 3.889 0 2.227-1.538 3.846-3.49 3.846ZM156.41 26.25h-6.872V45h2.866v-7.104h4.006c3.182 0 6.302-2.248 6.302-5.824 0-3.574-3.128-5.822-6.302-5.822Zm.074 9.038h-4.08v-6.43h4.08c2.14 0 3.361 1.735 3.361 3.214 0 1.451-1.221 3.215-3.361 3.215Zm17.713-2.695c-2.071 0-4.223.893-5.109 2.87l2.543 1.041c.547-1.04 1.554-1.378 2.617-1.378 1.487 0 2.994.872 3.017 2.412v.196c-.518-.292-1.628-.725-2.993-.725-2.739 0-5.529 1.472-5.529 4.218 0 2.513 2.243 4.131 4.764 4.131 1.928 0 2.992-.85 3.661-1.837h.097v1.449h2.768v-7.192c0-3.325-2.543-5.185-5.836-5.185Zm-.346 10.275c-.937 0-2.243-.454-2.243-1.588 0-1.451 1.628-2.008 3.038-2.008 1.262 0 1.853.272 2.619.63-.224 1.736-1.755 2.966-3.414 2.966Zm16.264-9.864-3.293 8.128h-.098l-3.405-8.128h-3.09l5.116 11.358-2.919 6.321h2.994l7.883-17.68h-3.188ZM164.287 45h2.873V26.25h-2.873V45Z" fill="#fff"/><path d="M16.032 11.308c-.451.461-.713 1.18-.713 2.11V46.59c0 .93.261 1.648.713 2.11l.111.1 19.04-18.58v-.44L16.142 11.2l-.111.108Z" fill="url(#a)"/><path d="m41.522 36.416-6.34-6.197v-.438l6.347-6.197.142.08 7.517 4.176c2.145 1.185 2.145 3.135 0 4.327l-7.517 4.169-.15.08Z" fill="url(#b)"/><path d="M41.672 36.336 35.182 30l-19.15 18.7c.712.73 1.874.819 3.195.087l22.445-12.451Z" fill="url(#c)"/><path d="M41.672 23.664 19.228 11.212c-1.322-.723-2.484-.635-3.196.096L35.182 30l6.49-6.336Z" fill="url(#d)"/><defs><linearGradient id="a" x1="33.492" y1="46.935" x2="8.325" y2="21.159" gradientUnits="userSpaceOnUse"><stop stop-color="#00A0FF"/><stop offset=".007" stop-color="#00A1FF"/><stop offset=".26" stop-color="#00BEFF"/><stop offset=".512" stop-color="#00D2FF"/><stop offset=".76" stop-color="#00DFFF"/><stop offset="1" stop-color="#00E3FF"/></linearGradient><linearGradient id="b" x1="51.981" y1="29.998" x2="14.806" y2="29.998" gradientUnits="userSpaceOnUse"><stop stop-color="#FFE000"/><stop offset=".409" stop-color="#FFBD00"/><stop offset=".775" stop-color="orange"/><stop offset="1" stop-color="#FF9C00"/></linearGradient><linearGradient id="c" x1="38.143" y1="26.556" x2="4.015" y2="-8.399" gradientUnits="userSpaceOnUse"><stop stop-color="#FF3A44"/><stop offset="1" stop-color="#C31162"/></linearGradient><linearGradient id="d" x1="11.211" y1="59.736" x2="26.451" y2="44.127" gradientUnits="userSpaceOnUse"><stop stop-color="#32A071"/><stop offset=".069" stop-color="#2DA771"/><stop offset=".476" stop-color="#15CF74"/><stop offset=".801" stop-color="#06E775"/><stop offset="1" stop-color="#00F076"/></linearGradient></defs></svg>