<svg width="382" height="355" viewBox="0 0 382 355" fill="none" xmlns="http://www.w3.org/2000/svg">
<path d="M199.266 347.97C277.024 347.97 340.06 344.739 340.06 340.754C340.06 336.769 277.024 333.538 199.266 333.538C121.507 333.538 58.4717 336.769 58.4717 340.754C58.4717 344.739 121.507 347.97 199.266 347.97Z" fill="#F2FBFF"/>
<path d="M260.93 339.278C260.93 339.278 258.224 334.686 264.046 332.472C269.868 330.258 283.07 328.864 281.758 324.354C280.446 319.844 275.936 311.726 287.252 304.018C298.486 296.392 296.272 293.112 297.83 293.85C299.388 294.588 303.16 299.098 302.504 303.362C301.848 307.626 298.732 308.692 300.208 310.086C301.684 311.398 306.686 306.56 306.686 302.05C306.686 297.54 306.932 294.26 310.212 296.146C313.41 298.032 313 300.738 315.296 298.688C317.592 296.638 319.068 292.538 318.084 286.47C317.182 280.402 320.134 275.892 324.398 275.728C328.662 275.564 337.518 283.518 338.256 295.572C338.912 307.626 331.45 317.466 332.516 320.5C333.582 323.616 338.256 322.14 340.716 317.712C343.094 313.284 348.998 320.254 347.44 326.322C345.8 332.39 344.324 339.032 340.716 340.262C337.108 341.492 273.066 340.508 268.228 340.508C263.308 340.508 261.832 340.59 260.93 339.278Z" fill="#FF8D76"/>
<path d="M276.1 337.228C279.462 337.146 289.548 337.228 288.318 331.57C287.088 325.912 284.956 323.534 288.482 318.696C292.008 313.858 295.862 316.81 296.026 319.27C296.19 321.648 295.206 326.486 299.388 325.83C303.57 325.174 303.652 313.858 307.178 312.956C310.704 312.054 311.77 315.498 312.262 318.86C312.836 322.222 316.936 318.614 318.576 314.596C320.216 310.578 320.052 305.084 323.824 303.444C327.596 301.804 329.482 311.234 327.842 319.844C326.202 328.454 324.89 332.718 326.94 333.538C328.99 334.358 333.008 332.308 334.894 335.424C336.78 338.54 333.992 340.672 326.284 340.672C318.658 340.672 279.544 340.672 273.394 340.672C267.08 340.59 268.392 337.392 276.1 337.228Z" fill="#FEC272"/>
<path d="M52.8957 206.848C50.4357 211.194 43.7937 208.98 40.6777 204.06C37.5617 199.058 32.8877 202.01 33.9537 211.85C35.0197 221.608 38.9557 228.086 46.0077 232.76C53.0597 237.434 61.0137 239.32 59.1277 242.518C57.2417 245.716 54.2897 253.014 64.8677 256.704C75.4457 260.476 90.7797 258.754 98.6517 249.898C106.606 241.042 106.606 221.526 102.916 211.03C99.3077 200.534 92.0097 193.892 89.6317 189.054C87.2537 184.216 82.8257 187.578 83.5637 192.088C84.3837 196.598 85.8597 199.222 82.6617 199.304C79.4637 199.386 77.3317 188.398 67.7377 186.348C58.1437 184.216 56.5857 189.956 50.5177 186.676C44.4497 183.314 42.2357 183.642 41.8257 188.89C41.4157 194.22 45.4337 200.042 48.8777 200.944C54.0437 202.256 54.5357 203.896 52.8957 206.848Z" fill="#FEC272"/>
<path d="M67.0001 211.932C67.9021 216.606 64.0481 221.69 57.3241 218.738C50.6001 215.786 48.2221 218.164 51.6661 224.396C55.1101 230.628 62.8181 236.368 67.0001 238.5C71.1821 240.632 68.3121 243.748 68.8861 246.946C69.4601 250.144 78.8081 254.982 88.2381 244.65C97.6681 234.318 97.7501 221.198 95.0441 211.604C92.3381 202.092 88.7301 203.568 88.7301 206.766C88.7301 209.964 89.1401 216.278 86.6801 215.622C84.3021 214.966 80.9401 210.292 77.8241 204.88C72.4941 195.614 59.4561 188.07 57.7341 195.204C56.5041 200.206 65.6881 204.798 67.0001 211.932Z" fill="#FF8D76"/>
<path d="M257.158 181.346C245.35 171.752 234.608 154.532 232.23 123.618C230.508 101.232 237.97 91.3101 245.678 87.6201C253.304 84.0121 253.304 80.4041 256.748 81.3881C260.192 82.3721 259.372 90.2441 256.174 94.0981C252.976 97.9521 252.566 103.938 257.404 104.348C262.242 104.758 262.816 96.0661 263.636 88.0301C264.456 79.9941 266.424 76.7961 275.936 72.3681C285.448 67.9401 290.45 64.7421 292.418 58.2641C294.468 51.7861 296.436 52.1961 300.044 54.0001C303.652 55.8041 304.882 64.2501 301.848 67.4481C298.814 70.6461 296.436 73.1061 296.846 75.8941C297.256 78.6821 298.65 74.2541 306.932 70.2361C315.214 66.2181 318.576 54.1641 319.642 47.9321C320.708 41.7001 322.84 40.0601 328.662 42.9301C334.484 45.7181 341.946 56.7881 339.896 71.8761C337.846 86.9641 327.596 97.2141 326.038 105.332C324.398 113.368 329.482 115.172 334.73 112.138C339.978 109.104 337.108 100.084 339.978 95.8201C342.766 91.5561 351.458 100.658 354.082 115.91C356.706 131.162 360.724 155.434 338.01 178.148C314.558 201.436 280.2 200.124 257.158 181.346Z" fill="#FEC272"/>
<path d="M265.932 109.76C271.672 100.412 277.576 100.74 277.822 104.102C277.986 107.546 273.23 112.384 275.608 114.762C277.986 117.14 281.266 112.958 282.25 106.89C283.234 100.822 289.056 97.46 295.124 94.59C301.192 91.802 303.816 85.734 306.768 85.57C309.72 85.406 310.786 91.802 308.818 95.656C306.768 99.51 299.552 101.478 299.552 106.89C299.552 112.302 304.882 112.63 307.178 108.12C309.474 103.61 308.9 101.15 313.738 100.74C318.576 100.33 318.166 111.892 314.968 116.156C311.77 120.42 306.276 123.782 308.818 127.964C311.36 132.146 316.034 127.964 318.576 125.176C321.118 122.388 326.202 125.422 327.022 130.834C327.842 136.164 317.346 145.348 318.002 150.022C318.658 154.696 322.84 153.548 325.218 150.268C327.596 147.07 330.712 151.17 329.892 156.582C329.072 161.994 314.476 179.952 288.4 173.064C250.516 163.142 255.682 126.57 265.932 109.76Z" fill="#FF8D76"/>
<path d="M129.647 98.608L214.599 24.562C215.419 23.824 216.649 23.906 217.387 24.726C218.125 25.546 218.043 26.858 217.223 27.596L133.665 104.02L129.647 98.608Z" fill="#A9CFF2"/>
<path d="M121.694 113.696L75.1178 11.0322C74.6258 10.0482 75.1178 8.81822 76.1018 8.40822C77.0858 7.91622 78.3158 8.32622 78.8078 9.39222L128.008 111.482L121.694 113.696Z" fill="#A9CFF2"/>
<path d="M122.186 121.814C130.654 121.814 137.52 114.949 137.52 106.48C137.52 98.0113 130.654 91.146 122.186 91.146C113.717 91.146 106.852 98.0113 106.852 106.48C106.852 114.949 113.717 121.814 122.186 121.814Z" fill="#24272E"/>
<path d="M121.529 101.478C125.605 101.478 128.909 99.422 128.909 96.886C128.909 94.3499 125.605 92.2939 121.529 92.2939C117.454 92.2939 114.149 94.3499 114.149 96.886C114.149 99.422 117.454 101.478 121.529 101.478Z" fill="#3A404B"/>
<path d="M242.89 295.408C242.644 302.378 234.526 302.624 230.508 294.588C228.622 290.734 225.506 284.174 222.8 278.434C219.848 272.12 217.388 266.708 217.388 266.708L240.758 269.086C240.758 269.086 241.25 273.186 241.824 278.352C242.48 284.256 243.054 291.636 242.89 295.408Z" fill="#24272E"/>
<path d="M241.824 278.352C240.676 278.598 239.364 278.844 237.97 279.09C233.132 279.91 227.556 279.336 222.882 278.434C219.93 272.12 217.47 266.708 217.47 266.708L240.84 269.086C240.758 269.086 241.332 273.186 241.824 278.352Z" fill="#3A404B"/>
<path d="M84.3835 268.676C81.9235 275.236 89.2215 278.598 96.0275 272.776C99.3075 269.988 104.72 265.15 109.476 260.886C114.642 256.212 119.07 252.194 119.07 252.194L96.6015 245.224C96.6015 245.224 94.5515 248.832 92.0095 253.342C89.2215 258.672 85.6955 265.15 84.3835 268.676Z" fill="#24272E"/>
<path d="M92.0918 253.424C93.0758 254.162 94.1418 254.9 95.3718 255.638C99.4718 258.262 104.802 259.902 109.558 260.968C114.724 256.294 119.152 252.276 119.152 252.276L96.6838 245.306C96.6838 245.306 94.6338 248.914 92.0918 253.424Z" fill="#3A404B"/>
<path d="M302.504 180.28C299.388 204.798 296.6 230.792 291.27 248.75C290.614 251.046 289.876 253.178 289.056 255.146C282.25 272.858 269.868 269.25 253.878 270.726C237.888 272.202 233.05 272.038 233.05 272.038L237.15 247.11L256.666 129.358L294.96 132.72C294.96 132.72 297.01 134.196 298.732 136.984C300.536 139.854 306.03 152.564 302.504 180.28Z" fill="#358B2F"/>
<path d="M291.27 248.75C290.614 251.046 289.876 253.178 289.056 255.146C282.25 272.858 269.868 269.25 253.878 270.726C237.888 272.202 233.05 272.038 233.05 272.038L237.15 247.11L291.27 248.75Z" fill="#166F10"/>
<path d="M91.1895 111.892C91.1895 111.892 101.193 106.644 112.509 106.234C123.825 105.824 213.369 114.762 242.643 117.96C271.917 121.158 284.545 125.176 290.449 128.292C296.353 131.408 298.731 136.984 298.731 136.984L251.745 132.72L91.1895 111.892Z" fill="#2FA726"/>
<path d="M73.3137 220.542L79.2997 128.21C79.9557 117.55 89.4677 109.596 100.046 110.826L252.238 128.046C261.75 129.112 268.556 137.64 267.654 147.07L257.65 247.848C256.092 263.346 241.742 274.252 226.408 271.71L96.2737 249.652C82.3337 247.274 72.4117 234.646 73.3137 220.542Z" fill="#50B848"/>
<path d="M215.829 250.964L226.817 144.446C227.309 139.936 231.327 136.656 235.837 137.148L254.943 139.28C259.453 139.772 262.651 143.872 262.159 148.3L249.859 254.9C249.367 259.41 245.185 262.608 240.675 262.034L222.963 259.82C218.535 259.328 215.337 255.392 215.829 250.964Z" fill="#FEC272"/>
<path d="M257.322 160.354C257.322 163.798 256.092 166.914 254.124 169.374C252.73 171.014 251.09 172.408 249.122 173.31C247.318 174.212 245.268 174.622 243.054 174.622C235.182 174.622 228.786 168.226 228.786 160.354C228.786 157.074 229.934 154.04 231.738 151.662C233.05 149.94 234.69 148.546 236.658 147.562C238.544 146.578 240.758 146.086 243.054 146.086C250.844 146.086 257.322 152.482 257.322 160.354Z" fill="#F9A95A"/>
<path d="M256.584 157.976C256.584 161.092 255.518 163.962 253.632 166.258C252.402 167.816 250.844 169.046 249.04 169.866C247.318 170.686 245.514 171.096 243.464 171.096C236.248 171.096 230.344 165.274 230.344 157.976C230.344 154.942 231.328 152.236 233.05 150.022C234.28 148.464 235.756 147.152 237.56 146.332C239.364 145.43 241.332 144.938 243.382 144.938C250.762 144.856 256.584 150.76 256.584 157.976Z" fill="#99ADF9"/>
<path d="M253.714 166.258C252.484 167.816 250.926 169.046 249.122 169.866L233.214 150.022C234.444 148.464 235.92 147.152 237.724 146.332L253.714 166.258Z" fill="#C5DFFF"/>
<path d="M244.447 207.75C241.331 208.98 238.133 209.062 235.181 208.16C233.213 207.586 231.327 206.52 229.769 205.044C228.293 203.732 227.145 202.01 226.325 200.124C223.455 192.99 226.817 184.872 233.951 182.002C236.903 180.772 240.019 180.69 242.889 181.51C244.857 182.084 246.743 183.068 248.383 184.462C249.941 185.856 251.253 187.578 252.073 189.628C255.025 196.762 251.581 204.88 244.447 207.75Z" fill="#F9A95A"/>
<path d="M244.448 204.388C241.578 205.536 238.462 205.618 235.674 204.798C233.788 204.224 232.066 203.24 230.59 201.928C229.196 200.698 228.13 199.14 227.392 197.254C224.686 190.53 227.884 182.904 234.526 180.198C237.314 179.05 240.266 178.968 242.972 179.706C244.858 180.198 246.58 181.182 248.138 182.494C249.614 183.806 250.844 185.446 251.664 187.414C254.37 194.056 251.172 201.682 244.448 204.388Z" fill="#99ADF9"/>
<path d="M248.138 182.412L235.674 204.798C233.788 204.224 232.066 203.24 230.59 201.928L242.972 179.706C244.94 180.198 246.662 181.1 248.138 182.412Z" fill="#C5DFFF"/>
<path d="M244.94 223.084L227.72 220.46C226.572 220.296 225.752 219.23 225.916 218.082C226.08 216.934 227.064 216.114 228.212 216.278L245.432 218.902C246.58 219.066 247.4 220.132 247.236 221.28C247.072 222.428 246.006 223.248 244.94 223.084Z" fill="#0D2560"/>
<path d="M243.792 232.596L226.572 229.972C225.424 229.808 224.604 228.742 224.768 227.594C224.932 226.446 225.916 225.626 227.064 225.79L244.284 228.414C245.432 228.578 246.252 229.644 246.088 230.792C246.006 232.022 244.94 232.76 243.792 232.596Z" fill="#0D2560"/>
<path d="M242.727 242.19L225.507 239.566C224.359 239.402 223.539 238.336 223.703 237.188C223.867 236.04 224.851 235.22 225.999 235.384L243.219 238.008C244.367 238.172 245.187 239.238 245.023 240.386C244.941 241.534 243.875 242.354 242.727 242.19Z" fill="#0D2560"/>
<path d="M241.66 251.702L224.44 249.078C223.292 248.914 222.472 247.848 222.636 246.7C222.8 245.552 223.784 244.732 224.932 244.896L242.152 247.52C243.3 247.684 244.12 248.75 243.956 249.898C243.874 251.046 242.808 251.866 241.66 251.702Z" fill="#0D2560"/>
<path d="M219.848 147.562L219.356 152.728L210.664 244.404C210.336 247.52 209.024 250.308 206.974 252.358C204.104 255.31 199.922 256.868 195.494 256.13L97.5038 240.632C87.2538 238.992 79.8738 229.808 80.5298 219.394L85.7778 137.23L85.9418 134.524L86.2698 130.014C86.6798 123.782 92.2558 119.108 98.4878 119.846L208.368 133.048C215.42 134.032 220.504 140.428 219.848 147.562Z" fill="#F8FBFF"/>
<path d="M219.847 147.562L219.355 152.728L85.9414 134.606L86.2694 130.096C86.6794 123.864 92.2554 119.19 98.4874 119.928L208.367 133.13C215.419 134.032 220.503 140.428 219.847 147.562Z" fill="#A9CFF2"/>
<path d="M99.3076 129.276C99.0616 130.916 97.5036 132.146 95.7816 131.9C94.0596 131.654 92.7476 130.178 92.9936 128.538C93.2396 126.898 94.7976 125.668 96.5196 125.914C98.2416 126.16 99.4716 127.636 99.3076 129.276Z" fill="white"/>
<path d="M112.264 130.834C112.018 132.474 110.46 133.704 108.738 133.458C107.016 133.212 105.704 131.736 105.95 130.096C106.196 128.456 107.754 127.226 109.476 127.472C111.198 127.718 112.428 129.194 112.264 130.834Z" fill="white"/>
<path d="M125.138 132.392C124.892 134.032 123.334 135.262 121.612 135.016C119.89 134.77 118.578 133.294 118.824 131.654C119.07 130.014 120.628 128.784 122.35 129.03C124.154 129.194 125.384 130.752 125.138 132.392Z" fill="white"/>
<path d="M206.974 252.358C204.104 255.31 199.922 256.868 195.494 256.13L97.5038 240.632C87.2538 238.992 79.8738 229.808 80.5298 219.394L85.7778 137.23C87.4998 165.684 83.1538 197.418 98.9798 215.458C122.186 241.944 143.26 241.78 206.974 252.358Z" fill="#A9CFF2"/>
<path d="M127.926 168.308L123.826 167.652C122.76 167.488 121.858 168.144 121.776 169.21L120.546 180.444L115.38 179.87C114.478 179.706 113.904 178.804 114.232 177.984L117.922 168.964C118.414 167.816 117.594 166.504 116.364 166.34L113.002 165.766C112.182 165.602 111.362 166.094 111.034 166.832L105.212 181.264C104.556 182.904 105.622 184.79 107.426 185.118L119.808 187.25L117.594 207.258C117.512 208.324 118.25 209.308 119.316 209.472L123.17 210.046C124.154 210.21 125.056 209.554 125.22 208.488L129.648 170.604C129.73 169.538 128.992 168.472 127.926 168.308Z" fill="#50B848"/>
<path d="M186.392 178.066L182.21 177.328C181.144 177.164 180.16 177.902 180.078 178.886L178.766 190.53L173.354 189.956C172.452 189.792 171.878 188.808 172.206 187.988L175.978 178.64C176.47 177.492 175.65 176.098 174.338 175.852L170.894 175.278C169.992 175.114 169.172 175.606 168.844 176.344L162.776 191.268C162.12 192.99 163.268 194.958 165.072 195.286L177.864 197.418L175.568 218.164C175.486 219.23 176.224 220.296 177.372 220.46L181.39 221.034C182.456 221.198 183.358 220.46 183.522 219.476L188.114 180.198C188.278 179.214 187.458 178.23 186.392 178.066Z" fill="#50B848"/>
<path d="M147.934 170.932C139.816 170.194 135.06 174.786 133.092 188.316C130.632 205.126 135.06 211.932 143.26 213.818C154.412 216.442 156.38 206.848 158.594 192.662C160.808 178.476 156.052 171.67 147.934 170.932ZM151.952 192.334C150.886 202.256 147.852 207.914 144.162 207.012C140.226 206.028 138.75 201.436 139.898 189.71C140.8 180.28 143.096 177.082 146.95 177.41C150.804 177.82 153.018 182.412 151.952 192.334Z" fill="#50B848"/>
<path d="M254.944 64.6596C251.008 64.5776 249.286 55.1476 252.976 52.7696C256.666 50.3916 259.29 55.2296 259.372 58.7556C259.454 62.2816 258.47 64.8236 254.944 64.6596Z" fill="#FF8D76"/>
<path d="M300.455 37.3538C296.847 37.2718 295.289 28.7438 298.733 26.6118C302.095 24.4798 304.391 28.8258 304.473 32.0238C304.555 35.2218 303.653 37.4358 300.455 37.3538Z" fill="#FEC272"/>
<path d="M336.453 19.9698C332.762 19.8878 331.122 11.1138 334.648 8.89978C338.175 6.68578 340.471 11.1958 340.635 14.4758C340.799 17.7558 339.733 20.1338 336.453 19.9698Z" fill="#FF8D76"/>
<path d="M366.382 87.6196C363.266 86.7996 363.676 78.8456 367.12 77.6976C370.564 76.5496 371.712 80.8136 371.138 83.6836C370.564 86.5536 369.252 88.3576 366.382 87.6196Z" fill="#FEC272"/>
<path d="M52.1578 170.768C48.3038 170.194 47.5658 160.764 51.5838 158.878C55.6018 156.992 57.4878 161.994 57.2418 165.438C56.9138 168.964 55.6838 171.178 52.1578 170.768Z" fill="#FEC272"/>
<path d="M41.0881 140.428C38.0542 140.018 37.5622 132.638 40.5961 131.162C43.6301 129.686 45.1881 133.54 44.9421 136.246C44.7781 139.034 43.7941 140.838 41.0881 140.428Z" fill="#FF8D76"/>
<path d="M18.8663 189.136C13.9463 188.48 13.0443 176.344 18.1283 173.966C23.1303 171.588 25.6723 177.902 25.3443 182.412C24.9343 186.84 23.3763 189.71 18.8663 189.136Z" fill="#FEC272"/>
<path d="M70.4444 107.792L31.4124 76.7139L24.3604 89.5879L70.4444 107.792Z" fill="#FEC272"/>
<path d="M72.3303 99.018L34.4463 62.036L48.6323 52.8521L72.3303 99.018Z" fill="#FEC272"/>
<path d="M66.7539 54.1641L80.0379 95.4921L78.7259 52.9341L66.7539 54.1641Z" fill="#FEC272"/>
</svg>
