<svg width="382" height="356" viewBox="0 0 382 356" fill="none" xmlns="http://www.w3.org/2000/svg">
<path d="M199.266 348.963C277.024 348.963 340.06 345.732 340.06 341.747C340.06 337.761 277.024 334.531 199.266 334.531C121.507 334.531 58.4717 337.761 58.4717 341.747C58.4717 345.732 121.507 348.963 199.266 348.963Z" fill="#F2FBFF"/>
<path d="M260.93 340.271C260.93 340.271 258.224 335.679 264.046 333.465C269.868 331.251 283.07 329.857 281.758 325.347C280.446 320.837 275.936 312.719 287.252 305.011C298.486 297.385 296.272 294.105 297.83 294.843C299.388 295.581 303.16 300.091 302.504 304.355C301.848 308.619 298.732 309.685 300.208 311.079C301.684 312.391 306.686 307.553 306.686 303.043C306.686 298.533 306.932 295.253 310.212 297.139C313.41 299.025 313 301.731 315.296 299.681C317.592 297.631 319.068 293.531 318.084 287.463C317.182 281.395 320.134 276.885 324.398 276.721C328.662 276.557 337.518 284.511 338.256 296.565C338.912 308.619 331.45 318.459 332.516 321.493C333.582 324.609 338.256 323.133 340.716 318.705C343.094 314.277 348.998 321.247 347.44 327.315C345.8 333.383 344.324 340.025 340.716 341.255C337.108 342.485 273.066 341.501 268.228 341.501C263.308 341.501 261.832 341.583 260.93 340.271Z" fill="#FF8D76"/>
<path d="M276.1 338.221C279.462 338.139 289.548 338.221 288.318 332.563C287.088 326.905 284.956 324.527 288.482 319.689C292.008 314.851 295.862 317.803 296.026 320.263C296.19 322.641 295.206 327.479 299.388 326.823C303.57 326.167 303.652 314.851 307.178 313.949C310.704 313.047 311.77 316.491 312.262 319.853C312.836 323.215 316.936 319.607 318.576 315.589C320.216 311.571 320.052 306.077 323.824 304.437C327.596 302.797 329.482 312.227 327.842 320.837C326.202 329.447 324.89 333.711 326.94 334.531C328.99 335.351 333.008 333.301 334.894 336.417C336.78 339.533 333.992 341.665 326.284 341.665C318.658 341.665 279.544 341.665 273.394 341.665C267.08 341.583 268.392 338.385 276.1 338.221Z" fill="#FEC272"/>
<path d="M52.8957 207.84C50.4357 212.186 43.7937 209.972 40.6777 205.052C37.5617 200.05 32.8877 203.002 33.9537 212.842C35.0197 222.6 38.9557 229.078 46.0077 233.752C53.0597 238.426 61.0137 240.312 59.1277 243.51C57.2417 246.708 54.2897 254.007 64.8677 257.697C75.4457 261.469 90.7797 259.746 98.6517 250.89C106.606 242.034 106.606 222.518 102.916 212.022C99.3077 201.526 92.0097 194.884 89.6317 190.046C87.2537 185.208 82.8257 188.57 83.5637 193.08C84.3837 197.59 85.8597 200.214 82.6617 200.296C79.4637 200.378 77.3317 189.39 67.7377 187.34C58.1437 185.208 56.5857 190.948 50.5177 187.668C44.4497 184.306 42.2357 184.634 41.8257 189.882C41.4157 195.212 45.4337 201.034 48.8777 201.936C54.0437 203.248 54.5357 204.888 52.8957 207.84Z" fill="#FEC272"/>
<path d="M67.0001 212.924C67.9021 217.598 64.0481 222.682 57.3241 219.73C50.6001 216.778 48.2221 219.156 51.6661 225.388C55.1101 231.62 62.8181 237.36 67.0001 239.492C71.1821 241.624 68.3121 244.74 68.8861 247.938C69.4601 251.136 78.8081 255.974 88.2381 245.642C97.6681 235.31 97.7501 222.19 95.0441 212.596C92.3381 203.084 88.7301 204.56 88.7301 207.758C88.7301 210.956 89.1401 217.27 86.6801 216.614C84.3021 215.958 80.9401 211.284 77.8241 205.872C72.4941 196.606 59.4561 189.062 57.7341 196.196C56.5041 201.198 65.6881 205.79 67.0001 212.924Z" fill="#FF8D76"/>
<path d="M257.158 182.339C245.35 172.745 234.608 155.525 232.23 124.611C230.508 102.225 237.97 92.3026 245.678 88.6126C253.304 85.0046 253.304 81.3966 256.748 82.3806C260.192 83.3646 259.372 91.2366 256.174 95.0906C252.976 98.9446 252.566 104.931 257.404 105.341C262.242 105.751 262.816 97.0586 263.636 89.0226C264.456 80.9866 266.424 77.7886 275.936 73.3606C285.448 68.9326 290.45 65.7346 292.418 59.2566C294.468 52.7786 296.436 53.1886 300.044 54.9926C303.652 56.7966 304.882 65.2426 301.848 68.4406C298.814 71.6386 296.436 74.0986 296.846 76.8866C297.256 79.6746 298.65 75.2466 306.932 71.2286C315.214 67.2106 318.576 55.1566 319.642 48.9246C320.708 42.6926 322.84 41.0526 328.662 43.9226C334.484 46.7106 341.946 57.7806 339.896 72.8686C337.846 87.9566 327.596 98.2066 326.038 106.325C324.398 114.361 329.482 116.165 334.73 113.131C339.978 110.097 337.108 101.077 339.978 96.8126C342.766 92.5486 351.458 101.651 354.082 116.903C356.706 132.155 360.724 156.427 338.01 179.141C314.558 202.429 280.2 201.117 257.158 182.339Z" fill="#FEC272"/>
<path d="M265.932 110.752C271.672 101.404 277.576 101.732 277.822 105.094C277.986 108.538 273.23 113.376 275.608 115.754C277.986 118.132 281.266 113.95 282.25 107.882C283.234 101.814 289.056 98.4525 295.124 95.5825C301.192 92.7945 303.816 86.7264 306.768 86.5624C309.72 86.3984 310.786 92.7945 308.818 96.6485C306.768 100.502 299.552 102.47 299.552 107.882C299.552 113.294 304.882 113.622 307.178 109.112C309.474 104.602 308.9 102.142 313.738 101.732C318.576 101.322 318.166 112.884 314.968 117.148C311.77 121.412 306.276 124.774 308.818 128.956C311.36 133.138 316.034 128.956 318.576 126.168C321.118 123.38 326.202 126.414 327.022 131.826C327.842 137.156 317.346 146.34 318.002 151.014C318.658 155.688 322.84 154.54 325.218 151.26C327.596 148.062 330.712 152.162 329.892 157.574C329.072 162.986 314.476 180.944 288.4 174.056C250.516 164.134 255.682 127.562 265.932 110.752Z" fill="#FF8D76"/>
<path d="M129.647 99.6005L214.599 25.5545C215.419 24.8165 216.649 24.8985 217.387 25.7185C218.125 26.5385 218.043 27.8505 217.223 28.5885L133.665 105.012L129.647 99.6005Z" fill="#A9CFF2"/>
<path d="M121.694 114.689L75.1178 12.0247C74.6258 11.0407 75.1178 9.81069 76.1018 9.40069C77.0858 8.90869 78.3158 9.31868 78.8078 10.3847L128.008 112.475L121.694 114.689Z" fill="#A9CFF2"/>
<path d="M122.186 122.806C130.654 122.806 137.52 115.941 137.52 107.472C137.52 99.0037 130.654 92.1385 122.186 92.1385C113.717 92.1385 106.852 99.0037 106.852 107.472C106.852 115.941 113.717 122.806 122.186 122.806Z" fill="#24272E"/>
<path d="M121.529 102.47C125.605 102.47 128.909 100.415 128.909 97.8784C128.909 95.3424 125.605 93.2864 121.529 93.2864C117.454 93.2864 114.149 95.3424 114.149 97.8784C114.149 100.415 117.454 102.47 121.529 102.47Z" fill="#3A404B"/>
<path d="M242.89 296.4C242.644 303.37 234.526 303.616 230.508 295.58C228.622 291.726 225.506 285.166 222.8 279.426C219.848 273.112 217.388 267.7 217.388 267.7L240.758 270.078C240.758 270.078 241.25 274.178 241.824 279.344C242.48 285.248 243.054 292.628 242.89 296.4Z" fill="#24272E"/>
<path d="M241.824 279.344C240.676 279.59 239.364 279.836 237.97 280.082C233.132 280.902 227.556 280.328 222.882 279.426C219.93 273.112 217.47 267.7 217.47 267.7L240.84 270.078C240.758 270.078 241.332 274.178 241.824 279.344Z" fill="#3A404B"/>
<path d="M84.3835 269.669C81.9235 276.229 89.2215 279.591 96.0275 273.769C99.3075 270.981 104.72 266.143 109.476 261.879C114.642 257.205 119.07 253.187 119.07 253.187L96.6015 246.217C96.6015 246.217 94.5515 249.825 92.0095 254.335C89.2215 259.665 85.6955 266.143 84.3835 269.669Z" fill="#24272E"/>
<path d="M92.0918 254.417C93.0758 255.155 94.1418 255.893 95.3718 256.631C99.4718 259.255 104.802 260.895 109.558 261.961C114.724 257.287 119.152 253.269 119.152 253.269L96.6838 246.299C96.6838 246.299 94.6338 249.907 92.0918 254.417Z" fill="#3A404B"/>
<path d="M302.504 181.272C299.388 205.79 296.6 231.784 291.27 249.742C290.614 252.038 289.876 254.17 289.056 256.138C282.25 273.85 269.868 270.242 253.878 271.718C237.888 273.194 233.05 273.03 233.05 273.03L237.15 248.102L256.666 130.35L294.96 133.712C294.96 133.712 297.01 135.188 298.732 137.976C300.536 140.846 306.03 153.556 302.504 181.272Z" fill="#358B2F"/>
<path d="M291.27 249.742C290.614 252.038 289.876 254.17 289.056 256.138C282.25 273.85 269.868 270.242 253.878 271.718C237.888 273.194 233.05 273.03 233.05 273.03L237.15 248.102L291.27 249.742Z" fill="#166F10"/>
<path d="M91.1895 112.884C91.1895 112.884 101.193 107.636 112.509 107.226C123.825 106.816 213.369 115.754 242.643 118.952C271.917 122.15 284.545 126.168 290.449 129.284C296.353 132.4 298.731 137.976 298.731 137.976L251.745 133.712L91.1895 112.884Z" fill="#2FA726"/>
<path d="M73.3137 221.534L79.2997 129.202C79.9557 118.542 89.4677 110.588 100.046 111.818L252.238 129.038C261.75 130.104 268.556 138.632 267.654 148.062L257.65 248.84C256.092 264.338 241.742 275.244 226.408 272.702L96.2737 250.644C82.3337 248.266 72.4117 235.638 73.3137 221.534Z" fill="#50B848"/>
<path d="M215.829 251.956L226.817 145.438C227.309 140.928 231.327 137.648 235.837 138.14L254.943 140.272C259.453 140.764 262.651 144.864 262.159 149.292L249.859 255.892C249.367 260.402 245.185 263.6 240.675 263.026L222.963 260.812C218.535 260.32 215.337 256.384 215.829 251.956Z" fill="#FEC272"/>
<path d="M257.322 161.346C257.322 164.79 256.092 167.906 254.124 170.366C252.73 172.006 251.09 173.4 249.122 174.302C247.318 175.204 245.268 175.614 243.054 175.614C235.182 175.614 228.786 169.218 228.786 161.346C228.786 158.066 229.934 155.032 231.738 152.654C233.05 150.932 234.69 149.538 236.658 148.554C238.544 147.57 240.758 147.078 243.054 147.078C250.844 147.078 257.322 153.474 257.322 161.346Z" fill="#F9A95A"/>
<path d="M256.584 158.968C256.584 162.084 255.518 164.954 253.632 167.25C252.402 168.808 250.844 170.038 249.04 170.858C247.318 171.678 245.514 172.088 243.464 172.088C236.248 172.088 230.344 166.266 230.344 158.968C230.344 155.934 231.328 153.228 233.05 151.014C234.28 149.456 235.756 148.144 237.56 147.324C239.364 146.422 241.332 145.93 243.382 145.93C250.762 145.848 256.584 151.752 256.584 158.968Z" fill="#99ADF9"/>
<path d="M253.714 167.25C252.484 168.808 250.926 170.038 249.122 170.858L233.214 151.014C234.444 149.456 235.92 148.144 237.724 147.324L253.714 167.25Z" fill="#C5DFFF"/>
<path d="M244.447 208.742C241.331 209.972 238.133 210.054 235.181 209.152C233.213 208.578 231.327 207.512 229.769 206.036C228.293 204.724 227.145 203.002 226.325 201.116C223.455 193.982 226.817 185.864 233.951 182.994C236.903 181.764 240.019 181.682 242.889 182.502C244.857 183.076 246.743 184.06 248.383 185.454C249.941 186.848 251.253 188.57 252.073 190.62C255.025 197.754 251.581 205.872 244.447 208.742Z" fill="#F9A95A"/>
<path d="M244.448 205.38C241.578 206.528 238.462 206.61 235.674 205.79C233.788 205.216 232.066 204.232 230.59 202.92C229.196 201.69 228.13 200.132 227.392 198.246C224.686 191.522 227.884 183.896 234.526 181.19C237.314 180.042 240.266 179.96 242.972 180.698C244.858 181.19 246.58 182.174 248.138 183.486C249.614 184.798 250.844 186.438 251.664 188.406C254.37 195.048 251.172 202.674 244.448 205.38Z" fill="#99ADF9"/>
<path d="M248.138 183.404L235.674 205.79C233.788 205.216 232.066 204.232 230.59 202.92L242.972 180.698C244.94 181.19 246.662 182.092 248.138 183.404Z" fill="#C5DFFF"/>
<path d="M244.94 224.076L227.72 221.452C226.572 221.288 225.752 220.222 225.916 219.074C226.08 217.926 227.064 217.106 228.212 217.27L245.432 219.894C246.58 220.058 247.4 221.124 247.236 222.272C247.072 223.42 246.006 224.24 244.94 224.076Z" fill="#0D2560"/>
<path d="M243.792 233.588L226.572 230.964C225.424 230.8 224.604 229.734 224.768 228.586C224.932 227.438 225.916 226.618 227.064 226.782L244.284 229.406C245.432 229.57 246.252 230.636 246.088 231.784C246.006 233.014 244.94 233.752 243.792 233.588Z" fill="#0D2560"/>
<path d="M242.727 243.182L225.507 240.558C224.359 240.394 223.539 239.328 223.703 238.18C223.867 237.032 224.851 236.212 225.999 236.376L243.219 239C244.367 239.164 245.187 240.23 245.023 241.378C244.941 242.526 243.875 243.346 242.727 243.182Z" fill="#0D2560"/>
<path d="M241.66 252.694L224.44 250.07C223.292 249.906 222.472 248.84 222.636 247.692C222.8 246.544 223.784 245.724 224.932 245.888L242.152 248.512C243.3 248.676 244.12 249.742 243.956 250.89C243.874 252.038 242.808 252.858 241.66 252.694Z" fill="#0D2560"/>
<path d="M219.848 148.554L219.356 153.72L210.664 245.396C210.336 248.512 209.024 251.3 206.974 253.35C204.104 256.302 199.922 257.86 195.494 257.122L97.5038 241.624C87.2538 239.984 79.8738 230.8 80.5298 220.386L85.7778 138.222L85.9418 135.516L86.2698 131.006C86.6798 124.774 92.2558 120.1 98.4878 120.838L208.368 134.04C215.42 135.024 220.504 141.42 219.848 148.554Z" fill="#F8FBFF"/>
<path d="M219.847 148.554L219.355 153.72L85.9414 135.598L86.2694 131.088C86.6794 124.856 92.2554 120.182 98.4874 120.92L208.367 134.122C215.419 135.024 220.503 141.42 219.847 148.554Z" fill="#A9CFF2"/>
<path d="M99.3076 130.268C99.0616 131.908 97.5036 133.138 95.7816 132.892C94.0596 132.646 92.7476 131.17 92.9936 129.53C93.2396 127.89 94.7976 126.66 96.5196 126.906C98.2416 127.152 99.4716 128.628 99.3076 130.268Z" fill="white"/>
<path d="M112.264 131.826C112.018 133.466 110.46 134.696 108.738 134.45C107.016 134.204 105.704 132.728 105.95 131.088C106.196 129.448 107.754 128.218 109.476 128.464C111.198 128.71 112.428 130.186 112.264 131.826Z" fill="white"/>
<path d="M125.138 133.384C124.892 135.024 123.334 136.254 121.612 136.008C119.89 135.762 118.578 134.286 118.824 132.646C119.07 131.006 120.628 129.776 122.35 130.022C124.154 130.186 125.384 131.744 125.138 133.384Z" fill="white"/>
<path d="M206.974 253.35C204.104 256.302 199.922 257.86 195.494 257.122L97.5038 241.624C87.2538 239.984 79.8738 230.8 80.5298 220.386L85.7778 138.222C87.4998 166.676 83.1538 198.41 98.9798 216.45C122.186 242.936 143.26 242.772 206.974 253.35Z" fill="#A9CFF2"/>
<path d="M127.926 169.3L123.826 168.644C122.76 168.48 121.858 169.136 121.776 170.202L120.546 181.436L115.38 180.862C114.478 180.698 113.904 179.796 114.232 178.976L117.922 169.956C118.414 168.808 117.594 167.496 116.364 167.332L113.002 166.758C112.182 166.594 111.362 167.086 111.034 167.824L105.212 182.256C104.556 183.896 105.622 185.782 107.426 186.11L119.808 188.242L117.594 208.25C117.512 209.316 118.25 210.3 119.316 210.464L123.17 211.038C124.154 211.202 125.056 210.546 125.22 209.48L129.648 171.596C129.73 170.53 128.992 169.464 127.926 169.3Z" fill="#50B848"/>
<path d="M186.392 179.059L182.21 178.321C181.144 178.157 180.16 178.895 180.078 179.879L178.766 191.523L173.354 190.949C172.452 190.785 171.878 189.801 172.206 188.981L175.978 179.633C176.47 178.485 175.65 177.091 174.338 176.845L170.894 176.271C169.992 176.107 169.172 176.599 168.844 177.337L162.776 192.261C162.12 193.983 163.268 195.951 165.072 196.279L177.864 198.411L175.568 219.157C175.486 220.223 176.224 221.289 177.372 221.453L181.39 222.027C182.456 222.191 183.358 221.453 183.522 220.469L188.114 181.191C188.278 180.207 187.458 179.223 186.392 179.059Z" fill="#50B848"/>
<path d="M147.934 171.924C139.816 171.186 135.06 175.778 133.092 189.308C130.632 206.118 135.06 212.924 143.26 214.81C154.412 217.434 156.38 207.84 158.594 193.654C160.808 179.468 156.052 172.662 147.934 171.924ZM151.952 193.326C150.886 203.248 147.852 208.906 144.162 208.004C140.226 207.02 138.75 202.428 139.898 190.702C140.8 181.272 143.096 178.074 146.95 178.402C150.804 178.812 153.018 183.404 151.952 193.326Z" fill="#50B848"/>
<path d="M254.944 65.6521C251.008 65.5701 249.286 56.1401 252.976 53.7621C256.666 51.3841 259.29 56.2221 259.372 59.7481C259.454 63.2741 258.47 65.8161 254.944 65.6521Z" fill="#FF8D76"/>
<path d="M300.455 38.3463C296.847 38.2643 295.289 29.7363 298.733 27.6043C302.095 25.4723 304.391 29.8183 304.473 33.0163C304.555 36.2143 303.653 38.4283 300.455 38.3463Z" fill="#FEC272"/>
<path d="M336.453 20.9622C332.762 20.8802 331.122 12.1062 334.648 9.89224C338.175 7.67824 340.471 12.1882 340.635 15.4682C340.799 18.7482 339.733 21.1262 336.453 20.9622Z" fill="#FF8D76"/>
<path d="M366.382 88.612C363.266 87.792 363.676 79.838 367.12 78.69C370.564 77.542 371.712 81.806 371.138 84.676C370.564 87.546 369.252 89.35 366.382 88.612Z" fill="#FEC272"/>
<path d="M52.1578 171.76C48.3038 171.186 47.5658 161.756 51.5838 159.87C55.6018 157.984 57.4878 162.986 57.2418 166.43C56.9138 169.956 55.6838 172.17 52.1578 171.76Z" fill="#FEC272"/>
<path d="M41.0881 141.42C38.0542 141.01 37.5622 133.63 40.5961 132.154C43.6301 130.678 45.1881 134.532 44.9421 137.238C44.7781 140.026 43.7941 141.83 41.0881 141.42Z" fill="#FF8D76"/>
<path d="M18.8663 190.129C13.9463 189.473 13.0443 177.337 18.1283 174.959C23.1303 172.581 25.6723 178.895 25.3443 183.405C24.9343 187.833 23.3763 190.703 18.8663 190.129Z" fill="#FEC272"/>
<path d="M70.4444 108.784L31.4124 77.7063L24.3604 90.5803L70.4444 108.784Z" fill="#FEC272"/>
<path d="M72.3303 100.01L34.4463 63.0285L48.6323 53.8445L72.3303 100.01Z" fill="#FEC272"/>
<path d="M66.7539 55.1565L80.0379 96.4846L78.7259 53.9265L66.7539 55.1565Z" fill="#FEC272"/>
</svg>
