<svg width="252" height="236" viewBox="0 0 252 236" fill="none" xmlns="http://www.w3.org/2000/svg">
<path d="M131.453 230.511C182.749 230.511 224.332 228.38 224.332 225.751C224.332 223.122 182.749 220.991 131.453 220.991C80.1565 220.991 38.5728 223.122 38.5728 225.751C38.5728 228.38 80.1565 230.511 131.453 230.511Z" fill="#F2FBFF"/>
<path d="M172.132 224.777C172.132 224.777 170.346 221.748 174.187 220.287C178.028 218.827 186.737 217.907 185.872 214.932C185.006 211.957 182.031 206.602 189.496 201.517C196.907 196.486 195.446 194.322 196.474 194.809C197.502 195.296 199.99 198.271 199.557 201.084C199.125 203.897 197.069 204.6 198.043 205.52C199.016 206.385 202.316 203.194 202.316 200.218C202.316 197.243 202.478 195.079 204.642 196.324C206.752 197.568 206.481 199.353 207.996 198.001C209.511 196.648 210.484 193.944 209.835 189.941C209.24 185.938 211.188 182.962 214.001 182.854C216.813 182.746 222.656 187.993 223.142 195.945C223.575 203.897 218.653 210.388 219.356 212.39C220.059 214.445 223.142 213.472 224.765 210.55C226.334 207.629 230.229 212.227 229.201 216.23C228.119 220.233 227.145 224.615 224.765 225.426C222.385 226.238 180.138 225.589 176.946 225.589C173.7 225.589 172.727 225.643 172.132 224.777Z" fill="#FF8D76"/>
<path d="M182.139 223.425C184.357 223.371 191.01 223.425 190.199 219.692C189.387 215.96 187.981 214.391 190.307 211.2C192.633 208.008 195.176 209.955 195.284 211.578C195.392 213.147 194.743 216.339 197.502 215.906C200.26 215.473 200.314 208.008 202.641 207.413C204.967 206.818 205.67 209.09 205.994 211.308C206.373 213.526 209.078 211.146 210.16 208.495C211.242 205.844 211.133 202.22 213.622 201.138C216.11 200.056 217.354 206.277 216.272 211.957C215.19 217.637 214.325 220.45 215.677 220.991C217.03 221.532 219.68 220.179 220.924 222.235C222.169 224.29 220.329 225.697 215.245 225.697C210.214 225.697 184.411 225.697 180.354 225.697C176.188 225.643 177.054 223.533 182.139 223.425Z" fill="#FEC272"/>
<path d="M34.8944 137.415C33.2715 140.282 28.8899 138.821 26.8343 135.576C24.7787 132.276 21.6954 134.223 22.3986 140.715C23.1018 147.152 25.6983 151.425 30.3504 154.509C35.0025 157.592 40.2497 158.836 39.0055 160.946C37.7613 163.056 35.814 167.87 42.7921 170.304C49.7703 172.793 59.8859 171.657 65.0789 165.814C70.3261 159.972 70.3261 147.098 67.8918 140.174C65.5117 133.25 60.6973 128.868 59.1286 125.677C57.5598 122.485 54.6388 124.703 55.1256 127.678C55.6665 130.653 56.6402 132.384 54.5306 132.438C52.4209 132.492 51.0144 125.244 44.6854 123.891C38.3564 122.485 37.3286 126.272 33.3256 124.108C29.3226 121.89 27.8621 122.106 27.5916 125.568C27.3212 129.084 29.9718 132.925 32.2437 133.52C35.6517 134.386 35.9762 135.468 34.8944 137.415Z" fill="#FEC272"/>
<path d="M44.1992 140.769C44.7942 143.852 42.2518 147.206 37.816 145.259C33.3803 143.311 31.8116 144.88 34.0835 148.991C36.3555 153.102 41.4404 156.889 44.1992 158.295C46.958 159.702 45.0647 161.757 45.4433 163.867C45.822 165.977 51.9887 169.168 58.2096 162.352C64.4304 155.537 64.4845 146.882 62.6994 140.552C60.9143 134.278 58.5341 135.251 58.5341 137.361C58.5341 139.471 58.8046 143.636 57.1818 143.203C55.613 142.77 53.3952 139.687 51.3396 136.117C47.8235 130.004 39.2225 125.027 38.0865 129.734C37.2751 133.033 43.3337 136.063 44.1992 140.769Z" fill="#FF8D76"/>
<path d="M169.643 120.592C161.854 114.263 154.767 102.903 153.199 82.5094C152.063 67.7417 156.985 61.1963 162.07 58.762C167.101 56.3819 167.101 54.0017 169.373 54.6509C171.645 55.3 171.104 60.493 168.994 63.0355C166.885 65.5779 166.614 69.5268 169.806 69.7972C172.997 70.0677 173.376 64.3337 173.917 59.0325C174.458 53.7313 175.756 51.6216 182.031 48.7005C188.306 45.7794 191.606 43.6697 192.904 39.3963C194.256 35.1228 195.554 35.3933 197.935 36.5834C200.315 37.7735 201.126 43.3452 199.125 45.4548C197.123 47.5645 195.554 49.1873 195.825 51.0265C196.095 52.8658 197.015 49.9447 202.479 47.2941C207.942 44.6434 210.16 36.6916 210.863 32.5804C211.566 28.4693 212.973 27.3874 216.813 29.2807C220.654 31.1199 225.577 38.4226 224.224 48.3759C222.872 58.3293 216.11 65.0911 215.082 70.4464C214.001 75.7476 217.354 76.9377 220.816 74.9362C224.278 72.9347 222.385 66.9844 224.278 64.1715C226.118 61.3586 231.852 67.363 233.583 77.4245C235.314 87.4861 237.964 103.498 222.98 118.482C207.509 133.845 184.844 132.979 169.643 120.592Z" fill="#FEC272"/>
<path d="M175.432 73.3674C179.219 67.2007 183.113 67.4171 183.276 69.6349C183.384 71.9069 180.246 75.0985 181.815 76.6672C183.384 78.2359 185.548 75.4771 186.197 71.4741C186.846 67.4712 190.687 65.2533 194.689 63.36C198.692 61.5208 200.423 57.5178 202.371 57.4096C204.318 57.3014 205.021 61.5208 203.723 64.0632C202.371 66.6057 197.611 67.9039 197.611 71.4741C197.611 75.0444 201.127 75.2607 202.641 72.2856C204.156 69.3104 203.777 67.6875 206.969 67.4171C210.16 67.1466 209.89 74.7739 207.78 77.5868C205.671 80.3997 202.046 82.6175 203.723 85.3764C205.4 88.1352 208.483 85.3764 210.16 83.5372C211.837 81.698 215.191 83.6994 215.732 87.2697C216.273 90.7858 209.349 96.8443 209.782 99.9277C210.215 103.011 212.973 102.254 214.542 100.09C216.111 97.9803 218.166 100.685 217.625 104.255C217.084 107.825 207.456 119.672 190.254 115.128C165.262 108.583 168.67 84.4568 175.432 73.3674Z" fill="#FF8D76"/>
<path d="M85.5264 66.0107L141.568 17.1636C142.109 16.6767 142.92 16.7308 143.407 17.2717C143.894 17.8127 143.84 18.6782 143.299 19.165L88.177 69.5809L85.5264 66.0107Z" fill="#A9CFF2"/>
<path d="M80.2796 75.9641L49.5541 8.23813C49.2295 7.589 49.5541 6.77759 50.2032 6.50712C50.8524 6.18255 51.6638 6.45302 51.9883 7.15625L84.4449 74.5036L80.2796 75.9641Z" fill="#A9CFF2"/>
<path d="M80.6044 81.3192C86.1911 81.3192 90.72 76.7903 90.72 71.2036C90.72 65.6169 86.1911 61.088 80.6044 61.088C75.0177 61.088 70.4888 65.6169 70.4888 71.2036C70.4888 76.7903 75.0177 81.3192 80.6044 81.3192Z" fill="#24272E"/>
<path d="M80.1717 67.9039C82.8605 67.9039 85.0402 66.5476 85.0402 64.8746C85.0402 63.2016 82.8605 61.8453 80.1717 61.8453C77.4829 61.8453 75.3032 63.2016 75.3032 64.8746C75.3032 66.5476 77.4829 67.9039 80.1717 67.9039Z" fill="#3A404B"/>
<path d="M160.231 195.837C160.069 200.435 154.713 200.597 152.063 195.296C150.819 192.753 148.763 188.426 146.978 184.639C145.031 180.474 143.408 176.904 143.408 176.904L158.825 178.473C158.825 178.473 159.149 181.177 159.528 184.585C159.961 188.48 160.339 193.348 160.231 195.837Z" fill="#24272E"/>
<path d="M159.528 184.585C158.771 184.748 157.905 184.91 156.985 185.072C153.794 185.613 150.116 185.234 147.032 184.639C145.085 180.474 143.462 176.904 143.462 176.904L158.879 178.473C158.825 178.473 159.203 181.177 159.528 184.585Z" fill="#3A404B"/>
<path d="M55.6667 178.202C54.0438 182.53 58.8582 184.748 63.348 180.907C65.5118 179.068 69.082 175.876 72.2195 173.063C75.6274 169.98 78.5485 167.329 78.5485 167.329L63.7267 162.731C63.7267 162.731 62.3743 165.111 60.6974 168.087C58.8582 171.603 56.5322 175.876 55.6667 178.202Z" fill="#24272E"/>
<path d="M60.7515 168.141C61.4006 168.627 62.1038 169.114 62.9152 169.601C65.6199 171.332 69.1361 172.414 72.2735 173.117C75.6815 170.034 78.6025 167.383 78.6025 167.383L63.7807 162.785C63.7807 162.785 62.4284 165.165 60.7515 168.141Z" fill="#3A404B"/>
<path d="M199.558 119.888C197.502 136.063 195.663 153.21 192.147 165.057C191.714 166.572 191.227 167.978 190.686 169.276C186.196 180.961 178.028 178.581 167.48 179.554C156.931 180.528 153.74 180.42 153.74 180.42L156.444 163.975L169.319 86.2959L194.581 88.5138C194.581 88.5138 195.933 89.4875 197.069 91.3267C198.259 93.22 201.884 101.605 199.558 119.888Z" fill="#358B2F"/>
<path d="M192.147 165.057C191.714 166.572 191.227 167.978 190.686 169.276C186.196 180.961 178.028 178.581 167.48 179.554C156.931 180.528 153.74 180.42 153.74 180.42L156.444 163.975L192.147 165.057Z" fill="#166F10"/>
<path d="M60.1567 74.7737C60.1567 74.7737 66.7562 71.3117 74.2212 71.0412C81.6862 70.7708 140.757 76.667 160.069 78.7767C179.38 80.8864 187.711 83.537 191.606 85.5926C195.501 87.6482 197.069 91.3266 197.069 91.3266L166.073 88.5137L60.1567 74.7737Z" fill="#2FA726"/>
<path d="M48.3642 146.449L52.3131 85.5385C52.7458 78.5062 59.0207 73.2591 65.9989 74.0705L166.398 85.4303C172.673 86.1335 177.163 91.7593 176.568 97.9802L169.968 164.462C168.94 174.686 159.474 181.88 149.358 180.203L63.5106 165.652C54.3145 164.083 47.7691 155.753 48.3642 146.449Z" fill="#50B848"/>
<path d="M142.38 166.518L149.628 96.2492C149.953 93.274 152.603 91.1103 155.579 91.4348L168.183 92.8413C171.158 93.1658 173.267 95.8706 172.943 98.7916L164.829 169.114C164.504 172.089 161.745 174.199 158.77 173.82L147.086 172.36C144.165 172.035 142.055 169.439 142.38 166.518Z" fill="#FEC272"/>
<path d="M169.752 106.743C169.752 109.015 168.941 111.071 167.642 112.694C166.723 113.776 165.641 114.695 164.343 115.29C163.153 115.885 161.8 116.156 160.34 116.156C155.147 116.156 150.927 111.937 150.927 106.743C150.927 104.58 151.685 102.578 152.875 101.009C153.74 99.8735 154.822 98.9539 156.12 98.3048C157.364 97.6556 158.825 97.3311 160.34 97.3311C165.479 97.3311 169.752 101.55 169.752 106.743Z" fill="#F9A95A"/>
<path d="M169.265 105.175C169.265 107.23 168.562 109.124 167.317 110.638C166.506 111.666 165.478 112.477 164.288 113.018C163.152 113.559 161.962 113.83 160.61 113.83C155.849 113.83 151.955 109.989 151.955 105.175C151.955 103.173 152.604 101.388 153.74 99.9276C154.551 98.8999 155.525 98.0343 156.715 97.4934C157.905 96.8984 159.203 96.5738 160.556 96.5738C165.424 96.5197 169.265 100.414 169.265 105.175Z" fill="#99ADF9"/>
<path d="M167.372 110.638C166.56 111.666 165.533 112.478 164.342 113.019L153.848 99.9278C154.66 98.9 155.633 98.0345 156.823 97.4935L167.372 110.638Z" fill="#C5DFFF"/>
<path d="M161.258 138.01C159.203 138.821 157.093 138.875 155.146 138.28C153.848 137.902 152.603 137.198 151.576 136.225C150.602 135.359 149.845 134.223 149.304 132.979C147.41 128.273 149.628 122.917 154.334 121.024C156.282 120.213 158.337 120.159 160.231 120.7C161.529 121.078 162.773 121.727 163.855 122.647C164.883 123.567 165.748 124.703 166.289 126.055C168.237 130.761 165.965 136.116 161.258 138.01Z" fill="#F9A95A"/>
<path d="M161.259 135.792C159.366 136.549 157.31 136.603 155.471 136.062C154.227 135.684 153.091 135.035 152.117 134.169C151.197 133.358 150.494 132.33 150.007 131.086C148.222 126.65 150.332 121.619 154.713 119.834C156.553 119.077 158.5 119.023 160.285 119.51C161.529 119.834 162.665 120.483 163.693 121.349C164.667 122.214 165.478 123.296 166.019 124.594C167.804 128.976 165.695 134.007 161.259 135.792Z" fill="#99ADF9"/>
<path d="M163.693 121.295L155.471 136.062C154.226 135.684 153.09 135.035 152.117 134.169L160.285 119.51C161.583 119.834 162.719 120.429 163.693 121.295Z" fill="#C5DFFF"/>
<path d="M161.584 148.125L150.224 146.394C149.467 146.286 148.926 145.583 149.034 144.826C149.142 144.068 149.792 143.527 150.549 143.636L161.909 145.367C162.666 145.475 163.207 146.178 163.099 146.935C162.991 147.693 162.287 148.234 161.584 148.125Z" fill="#0D2560"/>
<path d="M160.826 154.4L149.467 152.669C148.709 152.561 148.168 151.858 148.276 151.101C148.385 150.343 149.034 149.802 149.791 149.911L161.151 151.642C161.908 151.75 162.449 152.453 162.341 153.21C162.287 154.022 161.584 154.509 160.826 154.4Z" fill="#0D2560"/>
<path d="M160.124 160.729L148.764 158.998C148.007 158.89 147.466 158.187 147.574 157.43C147.682 156.672 148.331 156.131 149.088 156.239L160.448 157.971C161.206 158.079 161.747 158.782 161.638 159.539C161.584 160.297 160.881 160.838 160.124 160.729Z" fill="#0D2560"/>
<path d="M159.42 167.004L148.06 165.273C147.303 165.165 146.762 164.462 146.87 163.705C146.978 162.947 147.628 162.406 148.385 162.515L159.745 164.246C160.502 164.354 161.043 165.057 160.935 165.814C160.881 166.572 160.177 167.113 159.42 167.004Z" fill="#0D2560"/>
<path d="M145.031 98.3047L144.706 101.713L138.972 162.19C138.756 164.246 137.89 166.085 136.538 167.437C134.644 169.385 131.886 170.412 128.965 169.925L64.3219 159.702C57.5601 158.62 52.6916 152.561 53.1244 145.691L56.5864 91.4888L56.6946 89.7037L56.911 86.7285C57.1815 82.6174 60.8599 79.534 64.971 80.0208L137.457 88.73C142.109 89.3791 145.463 93.5985 145.031 98.3047Z" fill="#F8FBFF"/>
<path d="M145.03 98.3047L144.706 101.713L56.6943 89.7578L56.9107 86.7826C57.1812 82.6714 60.8596 79.5881 64.9707 80.0749L137.457 88.7841C142.109 89.3791 145.463 93.5985 145.03 98.3047Z" fill="#A9CFF2"/>
<path d="M65.512 86.2416C65.3497 87.3235 64.3219 88.1349 63.186 87.9727C62.05 87.8104 61.1845 86.8367 61.3468 85.7548C61.509 84.6729 62.5368 83.8615 63.6728 84.0238C64.8088 84.186 65.6202 85.1597 65.512 86.2416Z" fill="white"/>
<path d="M74.0589 87.2695C73.8966 88.3514 72.8688 89.1628 71.7328 89.0005C70.5969 88.8382 69.7313 87.8645 69.8936 86.7826C70.0559 85.7007 71.0837 84.8893 72.2197 85.0516C73.3557 85.2139 74.1671 86.1876 74.0589 87.2695Z" fill="white"/>
<path d="M82.5516 88.2973C82.3893 89.3792 81.3615 90.1906 80.2255 90.0283C79.0895 89.866 78.224 88.8923 78.3863 87.8104C78.5486 86.7286 79.5764 85.9171 80.7124 86.0794C81.9024 86.1876 82.7139 87.2154 82.5516 88.2973Z" fill="white"/>
<path d="M136.538 167.437C134.644 169.385 131.886 170.412 128.965 169.926L64.3219 159.702C57.5601 158.62 52.6916 152.561 53.1244 145.691L56.5864 91.489C57.7224 110.26 54.8554 131.194 65.2956 143.095C80.6043 160.567 94.5065 160.459 136.538 167.437Z" fill="#A9CFF2"/>
<path d="M84.3915 111.991L81.6867 111.558C80.9835 111.45 80.3885 111.883 80.3344 112.586L79.523 119.997L76.115 119.618C75.52 119.51 75.1413 118.915 75.3577 118.374L77.792 112.424C78.1165 111.666 77.5756 110.801 76.7642 110.692L74.5463 110.314C74.0054 110.206 73.4644 110.53 73.248 111.017L69.4074 120.538C68.9746 121.62 69.6778 122.864 70.8679 123.08L79.0361 124.487L77.5756 137.686C77.5215 138.389 78.0083 139.038 78.7116 139.146L81.254 139.525C81.9031 139.633 82.4982 139.2 82.6063 138.497L85.5274 113.505C85.5815 112.802 85.0947 112.099 84.3915 111.991Z" fill="#50B848"/>
<path d="M122.96 118.428L120.202 117.941C119.498 117.833 118.849 118.32 118.795 118.969L117.93 126.65L114.359 126.272C113.764 126.164 113.386 125.514 113.602 124.973L116.091 118.807C116.415 118.049 115.874 117.13 115.009 116.968L112.737 116.589C112.142 116.481 111.601 116.805 111.384 117.292L107.381 127.137C106.949 128.273 107.706 129.571 108.896 129.788L117.335 131.194L115.82 144.88C115.766 145.583 116.253 146.287 117.01 146.395L119.661 146.773C120.364 146.882 120.959 146.395 121.067 145.746L124.096 119.834C124.205 119.185 123.664 118.536 122.96 118.428Z" fill="#50B848"/>
<path d="M97.5903 113.722C92.2349 113.235 89.0975 116.264 87.7992 125.19C86.1764 136.279 89.0975 140.769 94.5069 142.013C101.864 143.744 103.162 137.415 104.623 128.057C106.083 118.698 102.946 114.209 97.5903 113.722ZM100.241 127.84C99.5377 134.386 97.5362 138.118 95.1019 137.523C92.5054 136.874 91.5317 133.845 92.289 126.109C92.8841 119.888 94.3987 117.779 96.9411 117.995C99.4836 118.266 100.944 121.295 100.241 127.84Z" fill="#50B848"/>
<path d="M168.183 43.6153C165.587 43.5612 164.451 37.3404 166.885 35.7716C169.319 34.2029 171.05 37.3945 171.104 39.7205C171.158 42.0466 170.509 43.7235 168.183 43.6153Z" fill="#FF8D76"/>
<path d="M198.206 25.6021C195.826 25.548 194.798 19.9222 197.07 18.5157C199.288 17.1093 200.802 19.9763 200.856 22.086C200.911 24.1956 200.315 25.6562 198.206 25.6021Z" fill="#FEC272"/>
<path d="M221.953 14.1341C219.518 14.08 218.437 8.29192 220.763 6.83138C223.089 5.37084 224.603 8.34602 224.712 10.5098C224.82 12.6736 224.116 14.2423 221.953 14.1341Z" fill="#FF8D76"/>
<path d="M241.697 58.7617C239.641 58.2208 239.912 52.9736 242.184 52.2163C244.456 51.459 245.213 54.2719 244.834 56.1652C244.456 58.0585 243.59 59.2486 241.697 58.7617Z" fill="#FEC272"/>
<path d="M34.4075 113.613C31.8651 113.235 31.3782 107.014 34.0288 105.77C36.6795 104.525 37.9236 107.825 37.7613 110.097C37.545 112.423 36.7335 113.884 34.4075 113.613Z" fill="#FEC272"/>
<path d="M27.1053 93.5986C25.1039 93.3281 24.7793 88.4596 26.7808 87.4859C28.7823 86.5122 29.8101 89.0547 29.6478 90.8398C29.5396 92.679 28.8905 93.869 27.1053 93.5986Z" fill="#FF8D76"/>
<path d="M12.4457 125.731C9.20006 125.298 8.60502 117.292 11.9589 115.723C15.2586 114.155 16.9355 118.32 16.7192 121.295C16.4487 124.216 15.4209 126.109 12.4457 125.731Z" fill="#FEC272"/>
<path d="M46.4713 72.0691L20.7224 51.5674L16.0703 60.0602L46.4713 72.0691Z" fill="#FEC272"/>
<path d="M47.7157 66.2811L22.7241 41.8846L32.0824 35.826L47.7157 66.2811Z" fill="#FEC272"/>
<path d="M44.0366 36.6915L52.7999 63.9551L51.9344 35.8801L44.0366 36.6915Z" fill="#FEC272"/>
</svg>
