<svg width="208" height="60" viewBox="0 0 208 60" fill="none" xmlns="http://www.w3.org/2000/svg">
<path d="M199.725 60H7.68173C3.4587 60 0 56.6231 0 52.5V7.5C0 3.37688 3.4587 3.17096e-06 7.68173 3.17096e-06H199.725C203.948 3.17096e-06 207.407 3.37688 207.407 7.5V52.5C207.407 56.6231 203.948 60 199.725 60Z" fill="#212E38"/>
<path d="M72.8497 15.3656C72.8497 16.6181 72.4656 17.6212 71.7089 18.3694C70.839 19.2562 69.7059 19.7025 68.3175 19.7025C66.9904 19.7025 65.8574 19.2487 64.9279 18.3544C63.9965 17.4469 63.5317 16.3331 63.5317 15C63.5317 13.6669 63.9965 12.5531 64.9279 11.6531C65.8574 10.7512 66.9904 10.2975 68.3175 10.2975C68.9781 10.2975 69.608 10.4306 70.2091 10.6781C70.8083 10.9275 71.296 11.265 71.6494 11.6812L70.8467 12.4725C70.2302 11.7619 69.391 11.4112 68.3175 11.4112C67.3496 11.4112 66.5103 11.7412 65.7979 12.4069C65.0931 13.0744 64.7397 13.9387 64.7397 15C64.7397 16.0612 65.0931 16.9331 65.7979 17.6006C66.5103 18.2587 67.3496 18.5962 68.3175 18.5962C69.3449 18.5962 70.2091 18.2587 70.8908 17.5931C71.3402 17.1525 71.5956 16.545 71.6629 15.7687H68.3175V14.685H72.7805C72.8343 14.9194 72.8497 15.1462 72.8497 15.3656Z" fill="white" stroke="white" stroke-width="0.16" stroke-miterlimit="10"/>
<path d="M79.9302 11.6081H75.7379V14.4581H79.5173V15.5418H75.7379V18.3918H79.9302V19.4962H74.5511V10.5037H79.9302V11.6081Z" fill="white" stroke="white" stroke-width="0.16" stroke-miterlimit="10"/>
<path d="M84.9272 19.4962H83.7404V11.6081H81.1689V10.5037H87.5006V11.6081H84.9272V19.4962Z" fill="white" stroke="white" stroke-width="0.16" stroke-miterlimit="10"/>
<path d="M92.0828 19.4962V10.5037H93.2677V19.4962H92.0828Z" fill="white" stroke="white" stroke-width="0.16" stroke-miterlimit="10"/>
<path d="M98.52 19.4962H97.3428V11.6081H94.7617V10.5037H101.101V11.6081H98.52V19.4962Z" fill="white" stroke="white" stroke-width="0.16" stroke-miterlimit="10"/>
<path d="M113.089 18.3394C112.18 19.2487 111.055 19.7025 109.712 19.7025C108.362 19.7025 107.237 19.2487 106.329 18.3394C105.422 17.4319 104.971 16.3181 104.971 15C104.971 13.6819 105.422 12.5681 106.329 11.6606C107.237 10.7512 108.362 10.2975 109.712 10.2975C111.047 10.2975 112.173 10.7512 113.081 11.6681C113.995 12.5831 114.446 13.6894 114.446 15C114.446 16.3181 113.995 17.4319 113.089 18.3394ZM107.206 17.5856C107.89 18.2587 108.722 18.5962 109.712 18.5962C110.696 18.5962 111.535 18.2587 112.211 17.5856C112.893 16.9125 113.238 16.0481 113.238 15C113.238 13.9519 112.893 13.0875 112.211 12.4144C111.535 11.7412 110.696 11.4037 109.712 11.4037C108.722 11.4037 107.89 11.7412 107.206 12.4144C106.525 13.0875 106.179 13.9519 106.179 15C106.179 16.0481 106.525 16.9125 107.206 17.5856Z" fill="white" stroke="white" stroke-width="0.16" stroke-miterlimit="10"/>
<path d="M116.111 19.4962V10.5037H117.552L122.03 17.4975H122.082L122.03 15.7687V10.5037H123.215V19.4962H121.978L117.288 12.1575H117.237L117.288 13.8937V19.4962H116.111Z" fill="white" stroke="white" stroke-width="0.16" stroke-miterlimit="10"/>
<path d="M104.679 32.6287C101.07 32.6287 98.1225 35.31 98.1225 39.0093C98.1225 42.6787 101.07 45.3881 104.679 45.3881C108.295 45.3881 111.243 42.6787 111.243 39.0093C111.243 35.31 108.295 32.6287 104.679 32.6287ZM104.679 42.8756C102.699 42.8756 100.995 41.28 100.995 39.0093C100.995 36.7087 102.699 35.1412 104.679 35.1412C106.659 35.1412 108.37 36.7087 108.37 39.0093C108.37 41.28 106.659 42.8756 104.679 42.8756ZM90.3736 32.6287C86.7574 32.6287 83.8172 35.31 83.8172 39.0093C83.8172 42.6787 86.7574 45.3881 90.3736 45.3881C93.9878 45.3881 96.9299 42.6787 96.9299 39.0093C96.9299 35.31 93.9878 32.6287 90.3736 32.6287ZM90.3736 42.8756C88.3917 42.8756 86.6825 41.28 86.6825 39.0093C86.6825 36.7087 88.3917 35.1412 90.3736 35.1412C92.3535 35.1412 94.057 36.7087 94.057 39.0093C94.057 41.28 92.3535 42.8756 90.3736 42.8756ZM73.3509 34.5843V37.2956H79.9821C79.7881 38.8106 79.2696 39.9243 78.4746 40.7006C77.5067 41.6381 75.9991 42.6787 73.3509 42.6787C69.2699 42.6787 66.0743 39.4631 66.0743 35.4787C66.0743 31.4943 69.2699 28.2787 73.3509 28.2787C75.5574 28.2787 77.1629 29.1206 78.3478 30.2118L80.3047 28.3012C78.6474 26.7562 76.4428 25.5693 73.3509 25.5693C67.7547 25.5693 63.0516 30.015 63.0516 35.4787C63.0516 40.9425 67.7547 45.3881 73.3509 45.3881C76.3755 45.3881 78.6474 44.4206 80.4334 42.6056C82.2636 40.8187 82.834 38.3062 82.834 36.2775C82.834 35.6475 82.7802 35.0681 82.6842 34.5843H73.3509ZM142.959 36.6862C142.419 35.2593 140.754 32.6287 137.363 32.6287C134.002 32.6287 131.204 35.2143 131.204 39.0093C131.204 42.5831 133.973 45.3881 137.685 45.3881C140.687 45.3881 142.419 43.6012 143.132 42.5606L140.904 41.1112C140.161 42.1725 139.149 42.8756 137.685 42.8756C136.232 42.8756 135.189 42.225 134.52 40.9425L143.26 37.4118L142.959 36.6862ZM134.048 38.8106C133.973 36.3506 136.005 35.0906 137.461 35.0906C138.601 35.0906 139.569 35.6475 139.892 36.4443L134.048 38.8106ZM126.944 45H129.817V26.25H126.944V45ZM122.239 34.05H122.143C121.498 33.3037 120.267 32.6287 118.708 32.6287C115.435 32.6287 112.443 35.4337 112.443 39.03C112.443 42.6056 115.435 45.3881 118.708 45.3881C120.267 45.3881 121.498 44.7075 122.143 43.9387H122.239V44.8537C122.239 47.2931 120.905 48.6037 118.752 48.6037C116.997 48.6037 115.908 47.3662 115.458 46.3256L112.96 47.3437C113.68 49.035 115.587 51.1162 118.752 51.1162C122.12 51.1162 124.962 49.1812 124.962 44.4731V33.0168H122.239V34.05ZM118.953 42.8756C116.973 42.8756 115.316 41.2575 115.316 39.03C115.316 36.7818 116.973 35.1412 118.953 35.1412C120.905 35.1412 122.443 36.7818 122.443 39.03C122.443 41.2575 120.905 42.8756 118.953 42.8756ZM156.41 26.25H149.538V45H152.404V37.8956H156.41C159.592 37.8956 162.712 35.6475 162.712 32.0718C162.712 28.4981 159.584 26.25 156.41 26.25ZM156.484 35.2875H152.404V28.8581H156.484C158.624 28.8581 159.845 30.5925 159.845 32.0718C159.845 33.5231 158.624 35.2875 156.484 35.2875ZM174.197 32.5931C172.126 32.5931 169.974 33.4856 169.088 35.4637L171.631 36.5043C172.178 35.4637 173.185 35.1262 174.248 35.1262C175.735 35.1262 177.242 35.9981 177.265 37.5375V37.7343C176.747 37.4418 175.637 37.0087 174.272 37.0087C171.533 37.0087 168.743 38.4806 168.743 41.2275C168.743 43.74 170.986 45.3581 173.507 45.3581C175.435 45.3581 176.499 44.5087 177.168 43.5206H177.265V44.97H180.033V37.7775C180.033 34.4531 177.49 32.5931 174.197 32.5931ZM173.851 42.8681C172.914 42.8681 171.608 42.4143 171.608 41.28C171.608 39.8287 173.236 39.2718 174.646 39.2718C175.908 39.2718 176.499 39.5437 177.265 39.9018C177.041 41.6381 175.51 42.8681 173.851 42.8681ZM190.115 33.0037L186.822 41.1318H186.724L183.319 33.0037H180.229L185.345 44.3625L182.426 50.6831H185.42L193.303 33.0037H190.115ZM164.287 45H167.16V26.25H164.287V45Z" fill="white"/>
<path d="M16.0318 11.3082C15.5805 11.7694 15.3193 12.4875 15.3193 13.4175V46.59C15.3193 47.52 15.5805 48.2382 16.0318 48.6994L16.1431 48.8007L35.1823 30.2194V29.7807L16.1431 11.1994L16.0318 11.3082Z" fill="url(#paint0_linear_1394_14211)"/>
<path d="M41.5217 36.4162L35.1823 30.2193V29.7806L41.5293 23.5837L41.6715 23.6643L49.188 27.8399C51.3332 29.0249 51.3332 30.9749 49.188 32.1674L41.6715 36.3356L41.5217 36.4162Z" fill="url(#paint1_linear_1394_14211)"/>
<path d="M41.6716 36.3356L35.1824 30L16.0319 48.6994C16.7443 49.4306 17.9062 49.5188 19.2275 48.7875L41.6716 36.3356Z" fill="url(#paint2_linear_1394_14211)"/>
<path d="M41.6716 23.6644L19.2275 11.2125C17.9062 10.4888 16.7443 10.5769 16.0319 11.3081L35.1824 30L41.6716 23.6644Z" fill="url(#paint3_linear_1394_14211)"/>
<defs>
<linearGradient id="paint0_linear_1394_14211" x1="33.4919" y1="46.9355" x2="8.32548" y2="21.1593" gradientUnits="userSpaceOnUse">
<stop stop-color="#00A0FF"/>
<stop offset="0.0066" stop-color="#00A1FF"/>
<stop offset="0.2601" stop-color="#00BEFF"/>
<stop offset="0.5122" stop-color="#00D2FF"/>
<stop offset="0.7604" stop-color="#00DFFF"/>
<stop offset="1" stop-color="#00E3FF"/>
</linearGradient>
<linearGradient id="paint1_linear_1394_14211" x1="51.9813" y1="29.9978" x2="14.8065" y2="29.9978" gradientUnits="userSpaceOnUse">
<stop stop-color="#FFE000"/>
<stop offset="0.4087" stop-color="#FFBD00"/>
<stop offset="0.7754" stop-color="#FFA500"/>
<stop offset="1" stop-color="#FF9C00"/>
</linearGradient>
<linearGradient id="paint2_linear_1394_14211" x1="38.143" y1="26.5559" x2="4.0153" y2="-8.39875" gradientUnits="userSpaceOnUse">
<stop stop-color="#FF3A44"/>
<stop offset="1" stop-color="#C31162"/>
</linearGradient>
<linearGradient id="paint3_linear_1394_14211" x1="11.2113" y1="59.7357" x2="26.4508" y2="44.127" gradientUnits="userSpaceOnUse">
<stop stop-color="#32A071"/>
<stop offset="0.0685" stop-color="#2DA771"/>
<stop offset="0.4762" stop-color="#15CF74"/>
<stop offset="0.8009" stop-color="#06E775"/>
<stop offset="1" stop-color="#00F076"/>
</linearGradient>
</defs>
</svg>
